<svg width="1032" height="768" viewBox="0 0 1032 768" fill="none" xmlns="http://www.w3.org/2000/svg">
<g clip-path="url(#clip0_322_3104)">
<rect width="1032" height="768" fill="#303030"/>
<path d="M90.199 99.13C89.4277 99.13 88.769 98.9437 88.223 98.571C87.6857 98.1983 87.2697 97.661 86.975 96.959C86.689 96.257 86.546 95.4207 86.546 94.45C86.546 93.4793 86.689 92.643 86.975 91.941C87.2697 91.239 87.6857 90.7017 88.223 90.329C88.769 89.9563 89.4277 89.77 90.199 89.77C90.9617 89.77 91.616 89.9563 92.162 90.329C92.708 90.7017 93.124 91.239 93.41 91.941C93.7047 92.643 93.852 93.4793 93.852 94.45C93.852 95.4207 93.7047 96.257 93.41 96.959C93.124 97.661 92.708 98.1983 92.162 98.571C91.616 98.9437 90.9617 99.13 90.199 99.13ZM90.199 97.505C90.7883 97.505 91.2433 97.2407 91.564 96.712C91.8933 96.1833 92.058 95.4293 92.058 94.45C92.058 93.462 91.8933 92.6993 91.564 92.162C91.2433 91.616 90.7883 91.343 90.199 91.343C89.601 91.343 89.1417 91.616 88.821 92.162C88.5003 92.6993 88.34 93.462 88.34 94.45C88.34 95.4293 88.5003 96.1833 88.821 96.712C89.1417 97.2407 89.601 97.505 90.199 97.505ZM98.9543 99V96.881H95.4833L94.7033 95.399L99.2793 89.861H100.761V95.282H102.282V96.881H100.761V99H98.9543ZM96.8613 95.282H98.9543V92.708L96.8613 95.282ZM104.357 99.143C104.036 99.143 103.785 99.052 103.603 98.87C103.421 98.6793 103.33 98.4107 103.33 98.064C103.33 97.7433 103.425 97.4833 103.616 97.284C103.806 97.076 104.053 96.972 104.357 96.972C104.686 96.972 104.937 97.0673 105.111 97.258C105.293 97.4487 105.384 97.7173 105.384 98.064C105.384 98.376 105.288 98.636 105.098 98.844C104.916 99.0433 104.669 99.143 104.357 99.143ZM114.794 99.078C114.066 99.078 113.416 98.9263 112.844 98.623C112.272 98.311 111.821 97.8863 111.492 97.349C111.162 96.8117 110.998 96.1963 110.998 95.503V89.887H112.883V95.386C112.883 95.7673 112.969 96.1097 113.143 96.413C113.316 96.7077 113.546 96.9417 113.832 97.115C114.126 97.2883 114.447 97.375 114.794 97.375C115.166 97.375 115.5 97.2883 115.795 97.115C116.098 96.9417 116.336 96.7077 116.51 96.413C116.692 96.1097 116.783 95.7673 116.783 95.386V89.887H118.59V95.503C118.59 96.1963 118.425 96.8117 118.096 97.349C117.775 97.8863 117.329 98.311 116.757 98.623C116.185 98.9263 115.53 99.078 114.794 99.078ZM120.655 99V97.375H122.163V91.525H120.655V89.9H125.556V91.525H124.035V97.375H125.556V99H120.655ZM131.642 99V89.9H133.514V93.748L137.323 89.9H139.624L135.724 93.709L139.793 99H137.57L134.489 94.918L133.514 95.867V99H131.642ZM142.021 90.706C141.674 90.706 141.401 90.6193 141.202 90.446C141.011 90.2727 140.916 90.0343 140.916 89.731C140.916 89.4363 141.011 89.198 141.202 89.016C141.401 88.834 141.674 88.743 142.021 88.743C142.367 88.743 142.636 88.8297 142.827 89.003C143.017 89.1763 143.113 89.419 143.113 89.731C143.113 90.017 143.013 90.251 142.814 90.433C142.623 90.615 142.359 90.706 142.021 90.706ZM141.137 99V92.136H142.918V99H141.137ZM145.591 99V93.735H144.291V92.136H145.591V90.381H147.359V92.136H148.802V93.735H147.359V99H145.591Z" fill="#939393"/>
<path d="M86.84 172V158H89.42L96.64 167.74C96.5333 166.9 96.4533 166.027 96.4 165.12C96.36 164.2 96.3467 163.14 96.36 161.94V158H99.18V172H96.56L89.38 162.42C89.46 163.3 89.52 164 89.56 164.52C89.6 165.027 89.6267 165.453 89.64 165.8C89.6533 166.133 89.66 166.48 89.66 166.84V172H86.84ZM106.416 172.2C105.536 172.2 104.742 171.96 104.036 171.48C103.329 171 102.762 170.347 102.336 169.52C101.922 168.693 101.716 167.753 101.716 166.7C101.716 165.62 101.922 164.673 102.336 163.86C102.762 163.033 103.336 162.387 104.056 161.92C104.789 161.453 105.616 161.22 106.536 161.22C107.282 161.22 107.936 161.373 108.496 161.68C109.056 161.973 109.502 162.36 109.836 162.84V161.44H112.556V172H109.816V170.58C109.442 171.047 108.956 171.433 108.356 171.74C107.769 172.047 107.122 172.2 106.416 172.2ZM107.156 169.82C107.969 169.82 108.629 169.533 109.136 168.96C109.642 168.387 109.896 167.633 109.896 166.7C109.896 165.767 109.642 165.013 109.136 164.44C108.629 163.867 107.969 163.58 107.156 163.58C106.356 163.58 105.702 163.867 105.196 164.44C104.702 165.013 104.456 165.767 104.456 166.7C104.456 167.633 104.702 168.387 105.196 168.96C105.702 169.533 106.356 169.82 107.156 169.82ZM118.51 172L114.07 161.44H117.07L119.65 168.56L122.33 161.44H125.25L120.59 172H118.51ZM130.468 172.2C129.495 172.2 128.628 172.04 127.868 171.72C127.108 171.4 126.495 170.947 126.028 170.36L127.748 168.9C128.148 169.34 128.602 169.66 129.108 169.86C129.615 170.047 130.128 170.14 130.648 170.14C131.062 170.14 131.395 170.047 131.648 169.86C131.902 169.673 132.028 169.413 132.028 169.08C132.028 168.787 131.908 168.553 131.668 168.38C131.428 168.22 130.855 168.02 129.948 167.78C128.602 167.433 127.648 166.96 127.088 166.36C126.595 165.827 126.348 165.167 126.348 164.38C126.348 163.753 126.535 163.207 126.908 162.74C127.282 162.26 127.775 161.887 128.388 161.62C129.002 161.353 129.668 161.22 130.388 161.22C131.215 161.22 131.995 161.367 132.728 161.66C133.462 161.953 134.075 162.353 134.568 162.86L133.088 164.48C132.715 164.133 132.282 163.847 131.788 163.62C131.308 163.38 130.862 163.26 130.448 163.26C129.488 163.26 129.008 163.593 129.008 164.26C129.022 164.58 129.168 164.833 129.448 165.02C129.715 165.207 130.322 165.427 131.268 165.68C132.535 166.013 133.428 166.453 133.948 167C134.402 167.467 134.628 168.087 134.628 168.86C134.628 169.5 134.442 170.073 134.068 170.58C133.708 171.087 133.215 171.487 132.588 171.78C131.962 172.06 131.255 172.2 130.468 172.2Z" fill="#FFB833"/>
<path d="M565.36 172.2C564.067 172.2 562.953 171.967 562.02 171.5C561.1 171.02 560.313 170.333 559.66 169.44L561.48 167.38C562.133 168.287 562.78 168.907 563.42 169.24C564.06 169.56 564.767 169.72 565.54 169.72C566.167 169.72 566.693 169.587 567.12 169.32C567.56 169.053 567.78 168.693 567.78 168.24C567.78 167.693 567.5 167.267 566.94 166.96C566.393 166.64 565.687 166.393 564.82 166.22C563.313 165.9 562.193 165.387 561.46 164.68C560.727 163.973 560.36 163.033 560.36 161.86C560.36 161.047 560.593 160.333 561.06 159.72C561.527 159.093 562.14 158.607 562.9 158.26C563.673 157.913 564.527 157.74 565.46 157.74C566.7 157.74 567.727 157.953 568.54 158.38C569.367 158.793 570.02 159.387 570.5 160.16L568.64 161.98C567.813 160.807 566.76 160.22 565.48 160.22C564.813 160.22 564.273 160.36 563.86 160.64C563.46 160.907 563.26 161.273 563.26 161.74C563.26 162.233 563.493 162.62 563.96 162.9C564.44 163.18 565.08 163.4 565.88 163.56C567.347 163.867 568.507 164.36 569.36 165.04C570.227 165.707 570.66 166.607 570.66 167.74C570.66 168.673 570.433 169.473 569.98 170.14C569.54 170.807 568.92 171.32 568.12 171.68C567.333 172.027 566.413 172.2 565.36 172.2ZM574.678 159.24C574.144 159.24 573.724 159.107 573.418 158.84C573.124 158.573 572.978 158.207 572.978 157.74C572.978 157.287 573.124 156.92 573.418 156.64C573.724 156.36 574.144 156.22 574.678 156.22C575.211 156.22 575.624 156.353 575.918 156.62C576.211 156.887 576.358 157.26 576.358 157.74C576.358 158.18 576.204 158.54 575.898 158.82C575.604 159.1 575.198 159.24 574.678 159.24ZM573.318 172V161.44H576.058V172H573.318ZM579.111 172V161.44H581.751L581.791 162.86C582.151 162.38 582.631 161.987 583.231 161.68C583.831 161.373 584.458 161.22 585.111 161.22C587.538 161.22 588.751 162.66 588.751 165.54V172H586.031V165.74C586.031 164.233 585.398 163.507 584.131 163.56C583.478 163.56 582.931 163.76 582.491 164.16C582.065 164.56 581.851 165.053 581.851 165.64V172H579.111ZM596.275 176.6C595.461 176.6 594.648 176.473 593.835 176.22C593.035 175.98 592.381 175.667 591.875 175.28L592.835 173.3C593.248 173.607 593.735 173.847 594.295 174.02C594.868 174.193 595.448 174.28 596.035 174.28C598.101 174.28 599.135 173.307 599.135 171.36V170.54C598.801 170.967 598.335 171.327 597.735 171.62C597.148 171.9 596.528 172.04 595.875 172.04C594.901 172.04 594.028 171.813 593.255 171.36C592.495 170.893 591.895 170.26 591.455 169.46C591.015 168.647 590.795 167.72 590.795 166.68C590.795 165.627 591.008 164.687 591.435 163.86C591.875 163.033 592.475 162.387 593.235 161.92C593.995 161.453 594.848 161.22 595.795 161.22C596.501 161.22 597.155 161.367 597.755 161.66C598.368 161.94 598.855 162.28 599.215 162.68L599.255 161.44H601.875V171.22C601.875 172.94 601.375 174.267 600.375 175.2C599.388 176.133 598.021 176.6 596.275 176.6ZM596.355 169.8C597.221 169.8 597.915 169.513 598.435 168.94C598.968 168.367 599.235 167.62 599.235 166.7C599.235 165.767 598.968 165.013 598.435 164.44C597.901 163.853 597.208 163.56 596.355 163.56C595.515 163.56 594.828 163.853 594.295 164.44C593.775 165.027 593.515 165.78 593.515 166.7C593.515 167.62 593.775 168.367 594.295 168.94C594.828 169.513 595.515 169.8 596.355 169.8ZM604.737 172V157.2H607.457V172H604.737ZM615.147 172.2C614.013 172.2 613.02 171.967 612.167 171.5C611.313 171.033 610.647 170.393 610.167 169.58C609.7 168.767 609.467 167.833 609.467 166.78C609.467 165.687 609.693 164.727 610.147 163.9C610.613 163.06 611.247 162.4 612.047 161.92C612.86 161.44 613.793 161.2 614.847 161.2C615.793 161.2 616.64 161.433 617.387 161.9C618.147 162.353 618.733 162.973 619.147 163.76C619.573 164.547 619.773 165.447 619.747 166.46L619.727 167.32H612.127C612.273 168.08 612.633 168.68 613.207 169.12C613.793 169.56 614.533 169.78 615.427 169.78C615.907 169.78 616.34 169.707 616.727 169.56C617.127 169.413 617.553 169.153 618.007 168.78L619.327 170.62C618.753 171.127 618.093 171.52 617.347 171.8C616.613 172.067 615.88 172.2 615.147 172.2ZM614.867 163.56C613.36 163.56 612.453 164.24 612.147 165.6H617.147V165.52C617.107 164.947 616.867 164.48 616.427 164.12C616 163.747 615.48 163.56 614.867 163.56ZM629.58 159.24C629.047 159.24 628.627 159.107 628.32 158.84C628.027 158.573 627.88 158.207 627.88 157.74C627.88 157.287 628.027 156.92 628.32 156.64C628.627 156.36 629.047 156.22 629.58 156.22C630.113 156.22 630.527 156.353 630.82 156.62C631.113 156.887 631.26 157.26 631.26 157.74C631.26 158.18 631.107 158.54 630.8 158.82C630.507 159.1 630.1 159.24 629.58 159.24ZM628.22 172V161.44H630.96V172H628.22ZM635.074 172V163.9H633.074V161.44H635.074V158.74H637.794V161.44H640.014V163.9H637.794V172H635.074ZM646.748 172.2C645.615 172.2 644.621 171.967 643.768 171.5C642.915 171.033 642.248 170.393 641.768 169.58C641.301 168.767 641.068 167.833 641.068 166.78C641.068 165.687 641.295 164.727 641.748 163.9C642.215 163.06 642.848 162.4 643.648 161.92C644.461 161.44 645.395 161.2 646.448 161.2C647.395 161.2 648.241 161.433 648.988 161.9C649.748 162.353 650.335 162.973 650.748 163.76C651.175 164.547 651.375 165.447 651.348 166.46L651.328 167.32H643.728C643.875 168.08 644.235 168.68 644.808 169.12C645.395 169.56 646.135 169.78 647.028 169.78C647.508 169.78 647.941 169.707 648.328 169.56C648.728 169.413 649.155 169.153 649.608 168.78L650.928 170.62C650.355 171.127 649.695 171.52 648.948 171.8C648.215 172.067 647.481 172.2 646.748 172.2ZM646.468 163.56C644.961 163.56 644.055 164.24 643.748 165.6H648.748V165.52C648.708 164.947 648.468 164.48 648.028 164.12C647.601 163.747 647.081 163.56 646.468 163.56ZM653.447 172V161.44H656.087L656.127 162.94C656.5 162.433 656.967 162.027 657.527 161.72C658.087 161.4 658.674 161.24 659.287 161.24C660.047 161.24 660.68 161.407 661.187 161.74C661.694 162.06 662.107 162.573 662.427 163.28C662.814 162.653 663.334 162.16 663.987 161.8C664.654 161.427 665.34 161.24 666.047 161.24C668.46 161.24 669.667 162.693 669.667 165.6V172H666.927V165.8C666.927 164.333 666.327 163.6 665.127 163.6C664.487 163.6 663.954 163.8 663.527 164.2C663.114 164.6 662.907 165.1 662.907 165.7V172H660.167V165.76C660.167 165.067 660.014 164.533 659.707 164.16C659.4 163.787 658.96 163.6 658.387 163.6C657.76 163.6 657.234 163.8 656.807 164.2C656.394 164.6 656.187 165.087 656.187 165.66V172H653.447Z" fill="#FFB833"/>
<path d="M560.196 215V205.9H563.901C564.785 205.9 565.556 206.095 566.215 206.485C566.882 206.866 567.398 207.399 567.762 208.084C568.135 208.769 568.321 209.557 568.321 210.45C568.321 211.351 568.135 212.144 567.762 212.829C567.398 213.505 566.887 214.038 566.228 214.428C565.569 214.809 564.794 215 563.901 215H560.196ZM563.836 207.603H562.068V213.297H563.836C564.642 213.297 565.275 213.041 565.734 212.53C566.193 212.019 566.423 211.325 566.423 210.45C566.423 209.583 566.189 208.894 565.721 208.383C565.262 207.863 564.633 207.603 563.836 207.603ZM569.661 215V213.375H571.169V207.525H569.661V205.9H574.562V207.525H573.041V213.375H574.562V215H569.661ZM579.651 215.13C578.81 215.13 578.086 214.978 577.48 214.675C576.882 214.363 576.37 213.917 575.946 213.336L577.129 211.997C577.553 212.586 577.974 212.989 578.39 213.206C578.806 213.414 579.265 213.518 579.768 213.518C580.175 213.518 580.517 213.431 580.795 213.258C581.081 213.085 581.224 212.851 581.224 212.556C581.224 212.201 581.042 211.923 580.678 211.724C580.322 211.516 579.863 211.356 579.3 211.243C578.32 211.035 577.592 210.701 577.116 210.242C576.639 209.783 576.401 209.172 576.401 208.409C576.401 207.88 576.552 207.417 576.856 207.018C577.159 206.611 577.558 206.294 578.052 206.069C578.554 205.844 579.109 205.731 579.716 205.731C580.522 205.731 581.189 205.87 581.718 206.147C582.255 206.416 582.68 206.801 582.992 207.304L581.783 208.487C581.245 207.724 580.561 207.343 579.729 207.343C579.295 207.343 578.944 207.434 578.676 207.616C578.416 207.789 578.286 208.028 578.286 208.331C578.286 208.652 578.437 208.903 578.741 209.085C579.053 209.267 579.469 209.41 579.989 209.514C580.942 209.713 581.696 210.034 582.251 210.476C582.814 210.909 583.096 211.494 583.096 212.231C583.096 212.838 582.948 213.358 582.654 213.791C582.368 214.224 581.965 214.558 581.445 214.792C580.933 215.017 580.335 215.13 579.651 215.13ZM584.901 215V205.9H588.736C589.273 205.9 589.754 206.03 590.179 206.29C590.612 206.541 590.955 206.888 591.206 207.33C591.466 207.763 591.596 208.253 591.596 208.799C591.596 209.362 591.466 209.869 591.206 210.32C590.955 210.762 590.612 211.117 590.179 211.386C589.754 211.646 589.273 211.776 588.736 211.776H586.773V215H584.901ZM586.76 210.073H588.541C588.862 210.073 589.13 209.956 589.347 209.722C589.572 209.479 589.685 209.18 589.685 208.825C589.685 208.47 589.572 208.179 589.347 207.954C589.13 207.72 588.862 207.603 588.541 207.603H586.76V210.073ZM593.356 215V205.9H599.44V207.564H595.189V209.553H598.803V211.165H595.189V213.336H599.518V215H593.356ZM601.57 215V205.9H603.247L607.94 212.231C607.871 211.685 607.819 211.117 607.784 210.528C607.758 209.93 607.749 209.241 607.758 208.461V205.9H609.591V215H607.888L603.221 208.773C603.273 209.345 603.312 209.8 603.338 210.138C603.364 210.467 603.381 210.745 603.39 210.97C603.399 211.187 603.403 211.412 603.403 211.646V215H601.57ZM614.918 215.13C614.078 215.13 613.354 214.978 612.747 214.675C612.149 214.363 611.638 213.917 611.213 213.336L612.396 211.997C612.821 212.586 613.241 212.989 613.657 213.206C614.073 213.414 614.533 213.518 615.035 213.518C615.443 213.518 615.785 213.431 616.062 213.258C616.348 213.085 616.491 212.851 616.491 212.556C616.491 212.201 616.309 211.923 615.945 211.724C615.59 211.516 615.131 211.356 614.567 211.243C613.588 211.035 612.86 210.701 612.383 210.242C611.907 209.783 611.668 209.172 611.668 208.409C611.668 207.88 611.82 207.417 612.123 207.018C612.427 206.611 612.825 206.294 613.319 206.069C613.822 205.844 614.377 205.731 614.983 205.731C615.789 205.731 616.457 205.87 616.985 206.147C617.523 206.416 617.947 206.801 618.259 207.304L617.05 208.487C616.513 207.724 615.828 207.343 614.996 207.343C614.563 207.343 614.212 207.434 613.943 207.616C613.683 207.789 613.553 208.028 613.553 208.331C613.553 208.652 613.705 208.903 614.008 209.085C614.32 209.267 614.736 209.41 615.256 209.514C616.21 209.713 616.964 210.034 617.518 210.476C618.082 210.909 618.363 211.494 618.363 212.231C618.363 212.838 618.216 213.358 617.921 213.791C617.635 214.224 617.232 214.558 616.712 214.792C616.201 215.017 615.603 215.13 614.918 215.13ZM619.103 215L622.665 205.9H624.355L627.904 215H625.98L625.239 213.037H621.703L620.962 215H619.103ZM622.834 210.047L622.288 211.503H624.667L624.108 210.021C624.056 209.891 623.995 209.722 623.926 209.514C623.856 209.297 623.778 209.068 623.692 208.825C623.614 208.582 623.544 208.353 623.484 208.136C623.38 208.457 623.271 208.786 623.159 209.124C623.046 209.462 622.938 209.77 622.834 210.047Z" fill="#939393"/>
<g filter="url(#filter0_d_322_3104)">
<rect x="559" y="242.857" width="306" height="57" rx="8" fill="white"/>
<path d="M594.545 276.857V266.357H595.7L599.45 272.462L603.26 266.357H604.325V276.857H603.14V272.072C603.14 271.362 603.15 270.712 603.17 270.122C603.19 269.532 603.22 268.957 603.26 268.397L599.81 273.812H599L595.61 268.397C595.66 268.927 595.69 269.487 595.7 270.077C595.72 270.657 595.73 271.322 595.73 272.072V276.857H594.545ZM610.436 277.007C609.646 277.007 608.946 276.837 608.336 276.497C607.736 276.157 607.266 275.682 606.926 275.072C606.586 274.462 606.416 273.762 606.416 272.972C606.416 272.172 606.581 271.462 606.911 270.842C607.241 270.222 607.701 269.737 608.291 269.387C608.881 269.027 609.556 268.847 610.316 268.847C611.016 268.847 611.631 269.012 612.161 269.342C612.701 269.662 613.116 270.107 613.406 270.677C613.696 271.237 613.831 271.887 613.811 272.627L613.796 273.152H607.586C607.636 274.002 607.926 274.677 608.456 275.177C608.986 275.677 609.691 275.927 610.571 275.927C610.951 275.927 611.321 275.867 611.681 275.747C612.051 275.617 612.456 275.367 612.896 274.997L613.481 275.822C613.131 276.162 612.686 276.447 612.146 276.677C611.606 276.897 611.036 277.007 610.436 277.007ZM610.301 269.927C609.581 269.927 608.986 270.122 608.516 270.512C608.046 270.892 607.751 271.452 607.631 272.192H612.656V272.102C612.636 271.742 612.531 271.397 612.341 271.067C612.151 270.727 611.881 270.452 611.531 270.242C611.191 270.032 610.781 269.927 610.301 269.927ZM615.453 276.857V265.757H616.593V276.857H615.453ZM622.125 277.007C621.335 277.007 620.635 276.837 620.025 276.497C619.425 276.157 618.955 275.682 618.615 275.072C618.275 274.462 618.105 273.762 618.105 272.972C618.105 272.172 618.27 271.462 618.6 270.842C618.93 270.222 619.39 269.737 619.98 269.387C620.57 269.027 621.245 268.847 622.005 268.847C622.705 268.847 623.32 269.012 623.85 269.342C624.39 269.662 624.805 270.107 625.095 270.677C625.385 271.237 625.52 271.887 625.5 272.627L625.485 273.152H619.275C619.325 274.002 619.615 274.677 620.145 275.177C620.675 275.677 621.38 275.927 622.26 275.927C622.64 275.927 623.01 275.867 623.37 275.747C623.74 275.617 624.145 275.367 624.585 274.997L625.17 275.822C624.82 276.162 624.375 276.447 623.835 276.677C623.295 276.897 622.725 277.007 622.125 277.007ZM621.99 269.927C621.27 269.927 620.675 270.122 620.205 270.512C619.735 270.892 619.44 271.452 619.32 272.192H624.345V272.102C624.325 271.742 624.22 271.397 624.03 271.067C623.84 270.727 623.57 270.452 623.22 270.242C622.88 270.032 622.47 269.927 621.99 269.927ZM634.422 279.647C633.202 278.887 632.272 277.937 631.632 276.797C630.992 275.657 630.672 274.387 630.672 272.987C630.672 271.597 630.992 270.332 631.632 269.192C632.282 268.042 633.217 267.087 634.437 266.327L635.067 267.032C633.987 267.782 633.167 268.667 632.607 269.687C632.057 270.697 631.782 271.797 631.782 272.987C631.782 274.167 632.057 275.267 632.607 276.287C633.167 277.297 633.987 278.177 635.067 278.927L634.422 279.647ZM641.283 276.857V274.007H636.738L636.168 272.882L641.508 266.357H642.438V272.882H644.268V274.007H642.438V276.857H641.283ZM637.503 272.882H641.283V268.277L637.503 272.882ZM646.144 279.647L645.514 278.927C646.594 278.177 647.414 277.297 647.974 276.287C648.534 275.267 648.814 274.167 648.814 272.987C648.814 271.797 648.534 270.697 647.974 269.687C647.414 268.667 646.594 267.782 645.514 267.032L646.159 266.327C647.379 267.087 648.309 268.037 648.949 269.177C649.589 270.317 649.909 271.587 649.909 272.987C649.909 274.377 649.584 275.647 648.934 276.797C648.294 277.937 647.364 278.887 646.144 279.647Z" fill="#303030"/>
</g>
<path d="M559.949 337.714V336.089H561.457V330.239H559.949V328.614H564.85V330.239H563.329V336.089H564.85V337.714H559.949ZM567.001 337.714V328.614H568.678L573.371 334.945C573.301 334.399 573.249 333.832 573.215 333.242C573.189 332.644 573.18 331.955 573.189 331.175V328.614H575.022V337.714H573.319L568.652 331.487C568.704 332.059 568.743 332.514 568.769 332.852C568.795 333.182 568.812 333.459 568.821 333.684C568.829 333.901 568.834 334.126 568.834 334.36V337.714H567.001ZM581.571 337.844C580.869 337.844 580.228 337.727 579.647 337.493C579.066 337.251 578.564 336.917 578.139 336.492C577.714 336.068 577.385 335.574 577.151 335.01C576.917 334.438 576.8 333.814 576.8 333.138C576.8 332.48 576.921 331.869 577.164 331.305C577.407 330.733 577.745 330.235 578.178 329.81C578.611 329.386 579.118 329.056 579.699 328.822C580.288 328.588 580.934 328.471 581.636 328.471C582.355 328.471 583.027 328.614 583.651 328.9C584.275 329.186 584.765 329.55 585.12 329.992L583.963 331.214C583.616 330.885 583.248 330.634 582.858 330.46C582.477 330.278 582.065 330.187 581.623 330.187C581.068 330.187 580.57 330.317 580.128 330.577C579.695 330.829 579.352 331.18 579.101 331.63C578.85 332.072 578.724 332.575 578.724 333.138C578.724 333.702 578.854 334.209 579.114 334.659C579.383 335.11 579.742 335.47 580.193 335.738C580.644 336.007 581.142 336.141 581.688 336.141C582.095 336.141 582.464 336.063 582.793 335.907C583.122 335.743 583.382 335.53 583.573 335.27C583.772 335.002 583.872 334.703 583.872 334.373H581.506V332.787H585.679C585.705 332.935 585.722 333.117 585.731 333.333C585.74 333.541 585.744 333.706 585.744 333.827C585.744 334.616 585.558 335.314 585.185 335.92C584.821 336.527 584.323 336.999 583.69 337.337C583.066 337.675 582.36 337.844 581.571 337.844ZM587.491 337.714V328.614H591.495C592.05 328.614 592.552 328.74 593.003 328.991C593.462 329.243 593.826 329.589 594.095 330.031C594.364 330.465 594.498 330.959 594.498 331.513C594.498 332.103 594.342 332.631 594.03 333.099C593.718 333.567 593.306 333.918 592.795 334.152L594.862 337.727L592.691 337.714L590.832 334.425H589.298V337.714H587.491ZM589.298 332.878H591.43C591.794 332.878 592.084 332.757 592.301 332.514C592.526 332.263 592.639 331.951 592.639 331.578C592.639 331.18 592.505 330.859 592.236 330.616C591.967 330.374 591.612 330.252 591.17 330.252H589.298V332.878ZM596.581 337.714V328.614H602.665V330.278H598.414V332.267H602.028V333.879H598.414V336.05H602.743V337.714H596.581ZM604.795 337.714V328.614H608.5C609.384 328.614 610.155 328.809 610.814 329.199C611.481 329.581 611.997 330.114 612.361 330.798C612.733 331.483 612.92 332.272 612.92 333.164C612.92 334.066 612.733 334.859 612.361 335.543C611.997 336.219 611.485 336.752 610.827 337.142C610.168 337.524 609.392 337.714 608.5 337.714H604.795ZM608.435 330.317H606.667V336.011H608.435C609.241 336.011 609.873 335.756 610.333 335.244C610.792 334.733 611.022 334.04 611.022 333.164C611.022 332.298 610.788 331.609 610.32 331.097C609.86 330.577 609.232 330.317 608.435 330.317ZM614.26 337.714V336.089H615.768V330.239H614.26V328.614H619.161V330.239H617.64V336.089H619.161V337.714H614.26ZM621.311 337.714V328.614H627.395V330.278H623.144V332.267H626.758V333.879H623.144V336.05H627.473V337.714H621.311ZM629.525 337.714V328.614H631.202L635.895 334.945C635.826 334.399 635.774 333.832 635.739 333.242C635.713 332.644 635.704 331.955 635.713 331.175V328.614H637.546V337.714H635.843L631.176 331.487C631.228 332.059 631.267 332.514 631.293 332.852C631.319 333.182 631.336 333.459 631.345 333.684C631.354 333.901 631.358 334.126 631.358 334.36V337.714H629.525ZM641.807 337.714V330.317H639.168V328.614H646.396V330.317H643.679V337.714H641.807ZM647.775 337.714V336.089H649.283V330.239H647.775V328.614H652.676V330.239H651.155V336.089H652.676V337.714H647.775Z" fill="#939393"/>
<rect x="559" y="365.571" width="306" height="57" rx="8" fill="#F0F2FA"/>
<path d="M594.545 399.571V389.071H595.7L599.45 395.176L603.26 389.071H604.325V399.571H603.14V394.786C603.14 394.076 603.15 393.426 603.17 392.836C603.19 392.246 603.22 391.671 603.26 391.111L599.81 396.526H599L595.61 391.111C595.66 391.641 595.69 392.201 595.7 392.791C595.72 393.371 595.73 394.036 595.73 394.786V399.571H594.545ZM610.436 399.721C609.646 399.721 608.946 399.551 608.336 399.211C607.736 398.871 607.266 398.396 606.926 397.786C606.586 397.176 606.416 396.476 606.416 395.686C606.416 394.886 606.581 394.176 606.911 393.556C607.241 392.936 607.701 392.451 608.291 392.101C608.881 391.741 609.556 391.561 610.316 391.561C611.016 391.561 611.631 391.726 612.161 392.056C612.701 392.376 613.116 392.821 613.406 393.391C613.696 393.951 613.831 394.601 613.811 395.341L613.796 395.866H607.586C607.636 396.716 607.926 397.391 608.456 397.891C608.986 398.391 609.691 398.641 610.571 398.641C610.951 398.641 611.321 398.581 611.681 398.461C612.051 398.331 612.456 398.081 612.896 397.711L613.481 398.536C613.131 398.876 612.686 399.161 612.146 399.391C611.606 399.611 611.036 399.721 610.436 399.721ZM610.301 392.641C609.581 392.641 608.986 392.836 608.516 393.226C608.046 393.606 607.751 394.166 607.631 394.906H612.656V394.816C612.636 394.456 612.531 394.111 612.341 393.781C612.151 393.441 611.881 393.166 611.531 392.956C611.191 392.746 610.781 392.641 610.301 392.641ZM615.453 399.571V388.471H616.593V399.571H615.453ZM622.125 399.721C621.335 399.721 620.635 399.551 620.025 399.211C619.425 398.871 618.955 398.396 618.615 397.786C618.275 397.176 618.105 396.476 618.105 395.686C618.105 394.886 618.27 394.176 618.6 393.556C618.93 392.936 619.39 392.451 619.98 392.101C620.57 391.741 621.245 391.561 622.005 391.561C622.705 391.561 623.32 391.726 623.85 392.056C624.39 392.376 624.805 392.821 625.095 393.391C625.385 393.951 625.52 394.601 625.5 395.341L625.485 395.866H619.275C619.325 396.716 619.615 397.391 620.145 397.891C620.675 398.391 621.38 398.641 622.26 398.641C622.64 398.641 623.01 398.581 623.37 398.461C623.74 398.331 624.145 398.081 624.585 397.711L625.17 398.536C624.82 398.876 624.375 399.161 623.835 399.391C623.295 399.611 622.725 399.721 622.125 399.721ZM621.99 392.641C621.27 392.641 620.675 392.836 620.205 393.226C619.735 393.606 619.44 394.166 619.32 394.906H624.345V394.816C624.325 394.456 624.22 394.111 624.03 393.781C623.84 393.441 623.57 393.166 623.22 392.956C622.88 392.746 622.47 392.641 621.99 392.641ZM634.422 402.361C633.202 401.601 632.272 400.651 631.632 399.511C630.992 398.371 630.672 397.101 630.672 395.701C630.672 394.311 630.992 393.046 631.632 391.906C632.282 390.756 633.217 389.801 634.437 389.041L635.067 389.746C633.987 390.496 633.167 391.381 632.607 392.401C632.057 393.411 631.782 394.511 631.782 395.701C631.782 396.881 632.057 397.981 632.607 399.001C633.167 400.011 633.987 400.891 635.067 401.641L634.422 402.361ZM641.283 399.571V396.721H636.738L636.168 395.596L641.508 389.071H642.438V395.596H644.268V396.721H642.438V399.571H641.283ZM637.503 395.596H641.283V390.991L637.503 395.596ZM646.144 402.361L645.514 401.641C646.594 400.891 647.414 400.011 647.974 399.001C648.534 397.981 648.814 396.881 648.814 395.701C648.814 394.511 648.534 393.411 647.974 392.401C647.414 391.381 646.594 390.496 645.514 389.746L646.159 389.041C647.379 389.801 648.309 390.751 648.949 391.891C649.589 393.031 649.909 394.301 649.909 395.701C649.909 397.091 649.584 398.361 648.934 399.511C648.294 400.651 647.364 401.601 646.144 402.361Z" fill="#303030"/>
<path d="M560.196 460.429V451.329H562.068V458.726H566.215V460.429H560.196ZM567.82 460.429V458.804H569.328V452.954H567.82V451.329H572.721V452.954H571.2V458.804H572.721V460.429H567.82ZM577.81 460.559C576.969 460.559 576.245 460.407 575.639 460.104C575.041 459.792 574.529 459.345 574.105 458.765L575.288 457.426C575.712 458.015 576.133 458.418 576.549 458.635C576.965 458.843 577.424 458.947 577.927 458.947C578.334 458.947 578.676 458.86 578.954 458.687C579.24 458.513 579.383 458.279 579.383 457.985C579.383 457.629 579.201 457.352 578.837 457.153C578.481 456.945 578.022 456.784 577.459 456.672C576.479 456.464 575.751 456.13 575.275 455.671C574.798 455.211 574.56 454.6 574.56 453.838C574.56 453.309 574.711 452.845 575.015 452.447C575.318 452.039 575.717 451.723 576.211 451.498C576.713 451.272 577.268 451.16 577.875 451.16C578.681 451.16 579.348 451.298 579.877 451.576C580.414 451.844 580.839 452.23 581.151 452.733L579.942 453.916C579.404 453.153 578.72 452.772 577.888 452.772C577.454 452.772 577.103 452.863 576.835 453.045C576.575 453.218 576.445 453.456 576.445 453.76C576.445 454.08 576.596 454.332 576.9 454.514C577.212 454.696 577.628 454.839 578.148 454.943C579.101 455.142 579.855 455.463 580.41 455.905C580.973 456.338 581.255 456.923 581.255 457.66C581.255 458.266 581.107 458.786 580.813 459.22C580.527 459.653 580.124 459.987 579.604 460.221C579.092 460.446 578.494 460.559 577.81 460.559ZM584.932 460.429V453.032H582.293V451.329H589.521V453.032H586.804V460.429H584.932ZM589.434 460.429L592.996 451.329H594.686L598.235 460.429H596.311L595.57 458.466H592.034L591.293 460.429H589.434ZM593.165 455.476L592.619 456.932H594.998L594.439 455.45C594.387 455.32 594.326 455.151 594.257 454.943C594.187 454.726 594.109 454.496 594.023 454.254C593.945 454.011 593.875 453.781 593.815 453.565C593.711 453.885 593.602 454.215 593.49 454.553C593.377 454.891 593.269 455.198 593.165 455.476ZM606.438 460.559C605.597 460.559 604.873 460.407 604.267 460.104C603.669 459.792 603.157 459.345 602.733 458.765L603.916 457.426C604.34 458.015 604.761 458.418 605.177 458.635C605.593 458.843 606.052 458.947 606.555 458.947C606.962 458.947 607.304 458.86 607.582 458.687C607.868 458.513 608.011 458.279 608.011 457.985C608.011 457.629 607.829 457.352 607.465 457.153C607.109 456.945 606.65 456.784 606.087 456.672C605.107 456.464 604.379 456.13 603.903 455.671C603.426 455.211 603.188 454.6 603.188 453.838C603.188 453.309 603.339 452.845 603.643 452.447C603.946 452.039 604.345 451.723 604.839 451.498C605.341 451.272 605.896 451.16 606.503 451.16C607.309 451.16 607.976 451.298 608.505 451.576C609.042 451.844 609.467 452.23 609.779 452.733L608.57 453.916C608.032 453.153 607.348 452.772 606.516 452.772C606.082 452.772 605.731 452.863 605.463 453.045C605.203 453.218 605.073 453.456 605.073 453.76C605.073 454.08 605.224 454.332 605.528 454.514C605.84 454.696 606.256 454.839 606.776 454.943C607.729 455.142 608.483 455.463 609.038 455.905C609.601 456.338 609.883 456.923 609.883 457.66C609.883 458.266 609.735 458.786 609.441 459.22C609.155 459.653 608.752 459.987 608.232 460.221C607.72 460.446 607.122 460.559 606.438 460.559ZM611.688 460.429V451.329H615.523C616.061 451.329 616.542 451.459 616.966 451.719C617.4 451.97 617.742 452.317 617.993 452.759C618.253 453.192 618.383 453.682 618.383 454.228C618.383 454.791 618.253 455.298 617.993 455.749C617.742 456.191 617.4 456.546 616.966 456.815C616.542 457.075 616.061 457.205 615.523 457.205H613.56V460.429H611.688ZM613.547 455.502H615.328C615.649 455.502 615.918 455.385 616.134 455.151C616.36 454.908 616.472 454.609 616.472 454.254C616.472 453.898 616.36 453.608 616.134 453.383C615.918 453.149 615.649 453.032 615.328 453.032H613.547V455.502ZM620.143 460.429V451.329H626.227V452.993H621.976V454.982H625.59V456.594H621.976V458.765H626.305V460.429H620.143ZM631.295 460.559C630.454 460.559 629.731 460.407 629.124 460.104C628.526 459.792 628.015 459.345 627.59 458.765L628.773 457.426C629.198 458.015 629.618 458.418 630.034 458.635C630.45 458.843 630.909 458.947 631.412 458.947C631.819 458.947 632.162 458.86 632.439 458.687C632.725 458.513 632.868 458.279 632.868 457.985C632.868 457.629 632.686 457.352 632.322 457.153C631.967 456.945 631.507 456.784 630.944 456.672C629.965 456.464 629.237 456.13 628.76 455.671C628.283 455.211 628.045 454.6 628.045 453.838C628.045 453.309 628.197 452.845 628.5 452.447C628.803 452.039 629.202 451.723 629.696 451.498C630.199 451.272 630.753 451.16 631.36 451.16C632.166 451.16 632.833 451.298 633.362 451.576C633.899 451.844 634.324 452.23 634.636 452.733L633.427 453.916C632.89 453.153 632.205 452.772 631.373 452.772C630.94 452.772 630.589 452.863 630.32 453.045C630.06 453.218 629.93 453.456 629.93 453.76C629.93 454.08 630.082 454.332 630.385 454.514C630.697 454.696 631.113 454.839 631.633 454.943C632.586 455.142 633.34 455.463 633.895 455.905C634.458 456.338 634.74 456.923 634.74 457.66C634.74 458.266 634.593 458.786 634.298 459.22C634.012 459.653 633.609 459.987 633.089 460.221C632.578 460.446 631.98 460.559 631.295 460.559ZM635.48 460.429L639.042 451.329H640.732L644.281 460.429H642.357L641.616 458.466H638.08L637.339 460.429H635.48ZM639.211 455.476L638.665 456.932H641.044L640.485 455.45C640.433 455.32 640.372 455.151 640.303 454.943C640.233 454.726 640.155 454.496 640.069 454.254C639.991 454.011 639.921 453.781 639.861 453.565C639.757 453.885 639.648 454.215 639.536 454.553C639.423 454.891 639.315 455.198 639.211 455.476Z" fill="#939393"/>
<g filter="url(#filter1_d_322_3104)">
<rect x="559" y="498" width="306" height="57" rx="8" fill="white"/>
<path d="M611.361 532V521.5H612.516L616.266 527.605L620.076 521.5H621.141V532H619.956V527.215C619.956 526.505 619.966 525.855 619.986 525.265C620.006 524.675 620.036 524.1 620.076 523.54L616.626 528.955H615.816L612.426 523.54C612.476 524.07 612.506 524.63 612.516 525.22C612.536 525.8 612.546 526.465 612.546 527.215V532H611.361ZM627.252 532.15C626.462 532.15 625.762 531.98 625.152 531.64C624.552 531.3 624.082 530.825 623.742 530.215C623.402 529.605 623.232 528.905 623.232 528.115C623.232 527.315 623.397 526.605 623.727 525.985C624.057 525.365 624.517 524.88 625.107 524.53C625.697 524.17 626.372 523.99 627.132 523.99C627.832 523.99 628.447 524.155 628.977 524.485C629.517 524.805 629.932 525.25 630.222 525.82C630.512 526.38 630.647 527.03 630.627 527.77L630.612 528.295H624.402C624.452 529.145 624.742 529.82 625.272 530.32C625.802 530.82 626.507 531.07 627.387 531.07C627.767 531.07 628.137 531.01 628.497 530.89C628.867 530.76 629.272 530.51 629.712 530.14L630.297 530.965C629.947 531.305 629.502 531.59 628.962 531.82C628.422 532.04 627.852 532.15 627.252 532.15ZM627.117 525.07C626.397 525.07 625.802 525.265 625.332 525.655C624.862 526.035 624.567 526.595 624.447 527.335H629.472V527.245C629.452 526.885 629.347 526.54 629.157 526.21C628.967 525.87 628.697 525.595 628.347 525.385C628.007 525.175 627.597 525.07 627.117 525.07ZM632.27 532V520.9H633.41V532H632.27ZM638.942 532.15C638.152 532.15 637.452 531.98 636.842 531.64C636.242 531.3 635.772 530.825 635.432 530.215C635.092 529.605 634.922 528.905 634.922 528.115C634.922 527.315 635.087 526.605 635.417 525.985C635.747 525.365 636.207 524.88 636.797 524.53C637.387 524.17 638.062 523.99 638.822 523.99C639.522 523.99 640.137 524.155 640.667 524.485C641.207 524.805 641.622 525.25 641.912 525.82C642.202 526.38 642.337 527.03 642.317 527.77L642.302 528.295H636.092C636.142 529.145 636.432 529.82 636.962 530.32C637.492 530.82 638.197 531.07 639.077 531.07C639.457 531.07 639.827 531.01 640.187 530.89C640.557 530.76 640.962 530.51 641.402 530.14L641.987 530.965C641.637 531.305 641.192 531.59 640.652 531.82C640.112 532.04 639.542 532.15 638.942 532.15ZM638.807 525.07C638.087 525.07 637.492 525.265 637.022 525.655C636.552 526.035 636.257 526.595 636.137 527.335H641.162V527.245C641.142 526.885 641.037 526.54 640.847 526.21C640.657 525.87 640.387 525.595 640.037 525.385C639.697 525.175 639.287 525.07 638.807 525.07ZM651.238 534.79C650.018 534.03 649.088 533.08 648.448 531.94C647.808 530.8 647.488 529.53 647.488 528.13C647.488 526.74 647.808 525.475 648.448 524.335C649.098 523.185 650.033 522.23 651.253 521.47L651.883 522.175C650.803 522.925 649.983 523.81 649.423 524.83C648.873 525.84 648.598 526.94 648.598 528.13C648.598 529.31 648.873 530.41 649.423 531.43C649.983 532.44 650.803 533.32 651.883 534.07L651.238 534.79ZM658.099 532V529.15H653.554L652.984 528.025L658.324 521.5H659.254V528.025H661.084V529.15H659.254V532H658.099ZM654.319 528.025H658.099V523.42L654.319 528.025ZM662.961 534.79L662.331 534.07C663.411 533.32 664.231 532.44 664.791 531.43C665.351 530.41 665.631 529.31 665.631 528.13C665.631 526.94 665.351 525.84 664.791 524.83C664.231 523.81 663.411 522.925 662.331 522.175L662.976 521.47C664.196 522.23 665.126 523.18 665.766 524.32C666.406 525.46 666.726 526.73 666.726 528.13C666.726 529.52 666.401 530.79 665.751 531.94C665.111 533.08 664.181 534.03 662.961 534.79Z" fill="#303030"/>
</g>
<path d="M822.897 537.754C822.366 537.755 821.857 537.544 821.483 537.168L813.646 529.333C813.233 528.92 813.021 528.348 813.066 527.766L813.566 521.2C813.638 520.211 814.426 519.426 815.414 519.359L821.98 518.859C822.032 518.848 822.083 518.848 822.135 518.848C822.665 518.847 823.173 519.058 823.546 519.434L831.383 527.268C831.758 527.643 831.969 528.152 831.969 528.682C831.969 529.213 831.758 529.722 831.383 530.097L824.311 537.168C823.937 537.544 823.428 537.755 822.897 537.754ZM818.654 522.44C817.749 522.44 816.957 523.048 816.723 523.922C816.489 524.797 816.871 525.719 817.655 526.172C818.439 526.624 819.429 526.494 820.069 525.854L820.076 525.848L820.083 525.841L820.075 525.848C820.644 525.274 820.811 524.415 820.501 523.67C820.19 522.925 819.462 522.439 818.654 522.44Z" fill="#FFB833"/>
<path d="M597.5 536.202H585.417C584.082 536.202 583 535.12 583 533.786V521.702C583 520.368 584.082 519.286 585.417 519.286H597.5C598.835 519.286 599.917 520.368 599.917 521.702V533.786C599.917 535.12 598.835 536.202 597.5 536.202ZM585.417 521.702V533.786H597.5V521.702H585.417ZM590.25 531.806L586.988 528.608L588.679 526.88L590.25 528.416L594.238 524.468L595.929 526.186L590.25 531.805V531.806Z" fill="#FFB833"/>
<path d="M560.196 603.143V594.043H561.925L564.681 598.541L567.489 594.043H569.14V603.143H567.307V599.932C567.307 599.403 567.316 598.914 567.333 598.463C567.35 598.004 567.376 597.562 567.411 597.137L565.071 600.764H564.213L561.925 597.163C561.968 597.562 561.994 597.986 562.003 598.437C562.02 598.879 562.029 599.377 562.029 599.932V603.143H560.196ZM575.537 603.273C574.87 603.273 574.254 603.156 573.691 602.922C573.128 602.688 572.638 602.363 572.222 601.947C571.815 601.522 571.494 601.024 571.26 600.452C571.035 599.88 570.922 599.252 570.922 598.567C570.922 597.891 571.035 597.267 571.26 596.695C571.494 596.123 571.815 595.629 572.222 595.213C572.638 594.788 573.128 594.459 573.691 594.225C574.254 593.991 574.87 593.874 575.537 593.874C576.196 593.874 576.807 593.991 577.37 594.225C577.933 594.459 578.419 594.788 578.826 595.213C579.242 595.638 579.563 596.136 579.788 596.708C580.022 597.28 580.139 597.9 580.139 598.567C580.139 599.243 580.022 599.867 579.788 600.439C579.563 601.011 579.242 601.509 578.826 601.934C578.419 602.359 577.933 602.688 577.37 602.922C576.807 603.156 576.196 603.273 575.537 603.273ZM575.537 601.492C576.057 601.492 576.521 601.366 576.928 601.115C577.335 600.864 577.652 600.517 577.877 600.075C578.111 599.633 578.228 599.13 578.228 598.567C578.228 598.004 578.111 597.505 577.877 597.072C577.652 596.63 577.335 596.283 576.928 596.032C576.521 595.772 576.057 595.642 575.537 595.642C575.008 595.642 574.54 595.768 574.133 596.019C573.726 596.27 573.405 596.617 573.171 597.059C572.946 597.501 572.833 598.004 572.833 598.567C572.833 599.139 572.946 599.646 573.171 600.088C573.405 600.521 573.726 600.864 574.133 601.115C574.54 601.366 575.008 601.492 575.537 601.492ZM581.918 603.143V594.043H585.623C586.507 594.043 587.278 594.238 587.937 594.628C588.604 595.009 589.12 595.542 589.484 596.227C589.856 596.912 590.043 597.7 590.043 598.593C590.043 599.494 589.856 600.287 589.484 600.972C589.12 601.648 588.608 602.181 587.95 602.571C587.291 602.952 586.515 603.143 585.623 603.143H581.918ZM585.558 595.746H583.79V601.44H585.558C586.364 601.44 586.996 601.184 587.456 600.673C587.915 600.162 588.145 599.468 588.145 598.593C588.145 597.726 587.911 597.037 587.443 596.526C586.983 596.006 586.355 595.746 585.558 595.746ZM590.5 603.143L594.062 594.043H595.752L599.301 603.143H597.377L596.636 601.18H593.1L592.359 603.143H590.5ZM594.231 598.19L593.685 599.646H596.064L595.505 598.164C595.453 598.034 595.392 597.865 595.323 597.657C595.254 597.44 595.176 597.211 595.089 596.968C595.011 596.725 594.942 596.496 594.881 596.279C594.777 596.6 594.669 596.929 594.556 597.267C594.443 597.605 594.335 597.913 594.231 598.19ZM600.631 603.143V594.043H602.503V601.44H606.65V603.143H600.631ZM608.255 603.143V601.518H609.763V595.668H608.255V594.043H613.156V595.668H611.635V601.518H613.156V603.143H608.255ZM617.178 603.143V595.746H614.539V594.043H621.767V595.746H619.05V603.143H617.178ZM621.68 603.143L625.242 594.043H626.932L630.481 603.143H628.557L627.816 601.18H624.28L623.539 603.143H621.68ZM625.411 598.19L624.865 599.646H627.244L626.685 598.164C626.633 598.034 626.572 597.865 626.503 597.657C626.433 597.44 626.355 597.211 626.269 596.968C626.191 596.725 626.121 596.496 626.061 596.279C625.957 596.6 625.848 596.929 625.736 597.267C625.623 597.605 625.515 597.913 625.411 598.19ZM627.231 593.38L624.423 592.379L625.099 591.014L627.673 592.496L627.231 593.38ZM638.684 603.273C637.843 603.273 637.119 603.121 636.513 602.818C635.915 602.506 635.403 602.06 634.979 601.479L636.162 600.14C636.586 600.729 637.007 601.132 637.423 601.349C637.839 601.557 638.298 601.661 638.801 601.661C639.208 601.661 639.55 601.574 639.828 601.401C640.114 601.228 640.257 600.994 640.257 600.699C640.257 600.344 640.075 600.066 639.711 599.867C639.355 599.659 638.896 599.499 638.333 599.386C637.353 599.178 636.625 598.844 636.149 598.385C635.672 597.926 635.434 597.315 635.434 596.552C635.434 596.023 635.585 595.56 635.889 595.161C636.192 594.754 636.591 594.437 637.085 594.212C637.587 593.987 638.142 593.874 638.749 593.874C639.555 593.874 640.222 594.013 640.751 594.29C641.288 594.559 641.713 594.944 642.025 595.447L640.816 596.63C640.278 595.867 639.594 595.486 638.762 595.486C638.328 595.486 637.977 595.577 637.709 595.759C637.449 595.932 637.319 596.171 637.319 596.474C637.319 596.795 637.47 597.046 637.774 597.228C638.086 597.41 638.502 597.553 639.022 597.657C639.975 597.856 640.729 598.177 641.284 598.619C641.847 599.052 642.129 599.637 642.129 600.374C642.129 600.981 641.981 601.501 641.687 601.934C641.401 602.367 640.998 602.701 640.478 602.935C639.966 603.16 639.368 603.273 638.684 603.273ZM643.934 603.143V594.043H650.018V595.707H645.767V597.696H649.381V599.308H645.767V601.479H650.096V603.143H643.934ZM652.148 603.143V594.043H654.02V601.44H658.167V603.143H652.148ZM660.019 603.143V594.043H666.103V595.707H661.852V597.696H665.466V599.308H661.852V601.479H666.181V603.143H660.019ZM667.817 603.143V601.856L672.367 595.785H668.155V594.043H674.902V595.317L670.339 601.453H675.045V603.143H667.817ZM676.733 603.143V601.518H678.241V595.668H676.733V594.043H681.634V595.668H680.113V601.518H681.634V603.143H676.733ZM687.598 603.273C686.931 603.273 686.316 603.156 685.752 602.922C685.189 602.688 684.699 602.363 684.283 601.947C683.876 601.522 683.555 601.024 683.321 600.452C683.096 599.88 682.983 599.252 682.983 598.567C682.983 597.891 683.096 597.267 683.321 596.695C683.555 596.123 683.876 595.629 684.283 595.213C684.699 594.788 685.189 594.459 685.752 594.225C686.316 593.991 686.931 593.874 687.598 593.874C688.257 593.874 688.868 593.991 689.431 594.225C689.995 594.459 690.48 594.788 690.887 595.213C691.303 595.638 691.624 596.136 691.849 596.708C692.083 597.28 692.2 597.9 692.2 598.567C692.2 599.243 692.083 599.867 691.849 600.439C691.624 601.011 691.303 601.509 690.887 601.934C690.48 602.359 689.995 602.688 689.431 602.922C688.868 603.156 688.257 603.273 687.598 603.273ZM687.598 601.492C688.118 601.492 688.582 601.366 688.989 601.115C689.397 600.864 689.713 600.517 689.938 600.075C690.172 599.633 690.289 599.13 690.289 598.567C690.289 598.004 690.172 597.505 689.938 597.072C689.713 596.63 689.397 596.283 688.989 596.032C688.582 595.772 688.118 595.642 687.598 595.642C687.07 595.642 686.602 595.768 686.194 596.019C685.787 596.27 685.466 596.617 685.232 597.059C685.007 597.501 684.894 598.004 684.894 598.567C684.894 599.139 685.007 599.646 685.232 600.088C685.466 600.521 685.787 600.864 686.194 601.115C686.602 601.366 687.07 601.492 687.598 601.492ZM693.979 603.143V594.043H695.656L700.349 600.374C700.28 599.828 700.228 599.26 700.193 598.671C700.167 598.073 700.159 597.384 700.167 596.604V594.043H702V603.143H700.297L695.63 596.916C695.682 597.488 695.721 597.943 695.747 598.281C695.773 598.61 695.791 598.888 695.799 599.113C695.808 599.33 695.812 599.555 695.812 599.789V603.143H693.979ZM704.389 603.143V594.043H710.473V595.707H706.222V597.696H709.836V599.308H706.222V601.479H710.551V603.143H704.389Z" fill="#939393"/>
<g filter="url(#filter2_d_322_3104)">
<path d="M559 639C559 634.582 562.582 631 567 631H857C861.418 631 865 634.582 865 639V680C865 684.418 861.418 688 857 688H567C562.582 688 559 684.418 559 680V639Z" fill="#FBE8C5"/>
<path d="M611.545 665V654.5H612.7L616.45 660.605L620.26 654.5H621.325V665H620.14V660.215C620.14 659.505 620.15 658.855 620.17 658.265C620.19 657.675 620.22 657.1 620.26 656.54L616.81 661.955H616L612.61 656.54C612.66 657.07 612.69 657.63 612.7 658.22C612.72 658.8 612.73 659.465 612.73 660.215V665H611.545ZM627.436 665.15C626.646 665.15 625.946 664.98 625.336 664.64C624.736 664.3 624.266 663.825 623.926 663.215C623.586 662.605 623.416 661.905 623.416 661.115C623.416 660.315 623.581 659.605 623.911 658.985C624.241 658.365 624.701 657.88 625.291 657.53C625.881 657.17 626.556 656.99 627.316 656.99C628.016 656.99 628.631 657.155 629.161 657.485C629.701 657.805 630.116 658.25 630.406 658.82C630.696 659.38 630.831 660.03 630.811 660.77L630.796 661.295H624.586C624.636 662.145 624.926 662.82 625.456 663.32C625.986 663.82 626.691 664.07 627.571 664.07C627.951 664.07 628.321 664.01 628.681 663.89C629.051 663.76 629.456 663.51 629.896 663.14L630.481 663.965C630.131 664.305 629.686 664.59 629.146 664.82C628.606 665.04 628.036 665.15 627.436 665.15ZM627.301 658.07C626.581 658.07 625.986 658.265 625.516 658.655C625.046 659.035 624.751 659.595 624.631 660.335H629.656V660.245C629.636 659.885 629.531 659.54 629.341 659.21C629.151 658.87 628.881 658.595 628.531 658.385C628.191 658.175 627.781 658.07 627.301 658.07ZM632.453 665V653.9H633.593V665H632.453ZM639.125 665.15C638.335 665.15 637.635 664.98 637.025 664.64C636.425 664.3 635.955 663.825 635.615 663.215C635.275 662.605 635.105 661.905 635.105 661.115C635.105 660.315 635.27 659.605 635.6 658.985C635.93 658.365 636.39 657.88 636.98 657.53C637.57 657.17 638.245 656.99 639.005 656.99C639.705 656.99 640.32 657.155 640.85 657.485C641.39 657.805 641.805 658.25 642.095 658.82C642.385 659.38 642.52 660.03 642.5 660.77L642.485 661.295H636.275C636.325 662.145 636.615 662.82 637.145 663.32C637.675 663.82 638.38 664.07 639.26 664.07C639.64 664.07 640.01 664.01 640.37 663.89C640.74 663.76 641.145 663.51 641.585 663.14L642.17 663.965C641.82 664.305 641.375 664.59 640.835 664.82C640.295 665.04 639.725 665.15 639.125 665.15ZM638.99 658.07C638.27 658.07 637.675 658.265 637.205 658.655C636.735 659.035 636.44 659.595 636.32 660.335H641.345V660.245C641.325 659.885 641.22 659.54 641.03 659.21C640.84 658.87 640.57 658.595 640.22 658.385C639.88 658.175 639.47 658.07 638.99 658.07ZM651.422 667.79C650.202 667.03 649.272 666.08 648.632 664.94C647.992 663.8 647.672 662.53 647.672 661.13C647.672 659.74 647.992 658.475 648.632 657.335C649.282 656.185 650.217 655.23 651.437 654.47L652.067 655.175C650.987 655.925 650.167 656.81 649.607 657.83C649.057 658.84 648.782 659.94 648.782 661.13C648.782 662.31 649.057 663.41 649.607 664.43C650.167 665.44 650.987 666.32 652.067 667.07L651.422 667.79ZM658.283 665V662.15H653.738L653.168 661.025L658.508 654.5H659.438V661.025H661.268V662.15H659.438V665H658.283ZM654.503 661.025H658.283V656.42L654.503 661.025ZM663.144 667.79L662.514 667.07C663.594 666.32 664.414 665.44 664.974 664.43C665.534 663.41 665.814 662.31 665.814 661.13C665.814 659.94 665.534 658.84 664.974 657.83C664.414 656.81 663.594 655.925 662.514 655.175L663.159 654.47C664.379 655.23 665.309 656.18 665.949 657.32C666.589 658.46 666.909 659.73 666.909 661.13C666.909 662.52 666.584 663.79 665.934 664.94C665.294 666.08 664.364 667.03 663.144 667.79Z" fill="#303030"/>
<path d="M583 670C577.48 669.994 573.006 665.52 573 660V659.8C573.11 654.305 577.635 649.928 583.131 650.001C588.627 650.074 593.034 654.569 592.998 660.065C592.962 665.562 588.497 669.999 583 670ZM578.41 659.59L577 661L581 665L589 657L587.59 655.58L581 662.17L578.41 659.59Z" fill="#FFB833"/>
</g>
<path d="M87.196 215V205.9H88.925L91.681 210.398L94.489 205.9H96.14V215H94.307V211.789C94.307 211.26 94.3157 210.771 94.333 210.32C94.3503 209.861 94.3763 209.419 94.411 208.994L92.071 212.621H91.213L88.925 209.02C88.9683 209.419 88.9943 209.843 89.003 210.294C89.0203 210.736 89.029 211.234 89.029 211.789V215H87.196ZM97.4669 215L101.029 205.9H102.719L106.268 215H104.344L103.603 213.037H100.067L99.3259 215H97.4669ZM101.198 210.047L100.652 211.503H103.031L102.472 210.021C102.42 209.891 102.359 209.722 102.29 209.514C102.221 209.297 102.143 209.068 102.056 208.825C101.978 208.582 101.909 208.353 101.848 208.136C101.744 208.457 101.636 208.786 101.523 209.124C101.41 209.462 101.302 209.77 101.198 210.047ZM107.35 215V213.375H108.858V207.525H107.35V205.9H112.251V207.525H110.73V213.375H112.251V215H107.35ZM114.402 215V205.9H116.079L120.772 212.231C120.703 211.685 120.651 211.117 120.616 210.528C120.59 209.93 120.581 209.241 120.59 208.461V205.9H122.423V215H120.72L116.053 208.773C116.105 209.345 116.144 209.8 116.17 210.138C116.196 210.467 116.213 210.745 116.222 210.97C116.231 211.187 116.235 211.412 116.235 211.646V215H114.402ZM128.748 215V205.9H130.477L133.233 210.398L136.041 205.9H137.692V215H135.859V211.789C135.859 211.26 135.867 210.771 135.885 210.32C135.902 209.861 135.928 209.419 135.963 208.994L133.623 212.621H132.765L130.477 209.02C130.52 209.419 130.546 209.843 130.555 210.294C130.572 210.736 130.581 211.234 130.581 211.789V215H128.748ZM140.085 215V205.9H146.169V207.564H141.918V209.553H145.532V211.165H141.918V213.336H146.247V215H140.085ZM148.299 215V205.9H149.976L154.669 212.231C154.599 211.685 154.547 211.117 154.513 210.528C154.487 209.93 154.478 209.241 154.487 208.461V205.9H156.32V215H154.617L149.95 208.773C150.002 209.345 150.041 209.8 150.067 210.138C150.093 210.467 150.11 210.745 150.119 210.97C150.127 211.187 150.132 211.412 150.132 211.646V215H148.299ZM162.414 215.078C161.686 215.078 161.036 214.926 160.464 214.623C159.892 214.311 159.441 213.886 159.112 213.349C158.782 212.812 158.618 212.196 158.618 211.503V205.887H160.503V211.386C160.503 211.767 160.589 212.11 160.763 212.413C160.936 212.708 161.166 212.942 161.452 213.115C161.746 213.288 162.067 213.375 162.414 213.375C162.786 213.375 163.12 213.288 163.415 213.115C163.718 212.942 163.956 212.708 164.13 212.413C164.312 212.11 164.403 211.767 164.403 211.386V205.887H166.21V211.503C166.21 212.196 166.045 212.812 165.716 213.349C165.395 213.886 164.949 214.311 164.377 214.623C163.805 214.926 163.15 215.078 162.414 215.078Z" fill="#939393"/>
<path d="M86 254.714C86 249.191 90.4772 244.714 96 244.714H423C428.523 244.714 433 249.191 433 254.714V280.714C433 286.237 428.523 290.714 423 290.714H96C90.4771 290.714 86 286.237 86 280.714V254.714Z" fill="white"/>
<path d="M116.429 280.714C114.175 280.714 112.144 279.357 111.281 277.275C110.419 275.193 110.896 272.797 112.489 271.203C114.082 269.61 116.479 269.133 118.561 269.996C120.643 270.858 122 272.889 122 275.143C122 276.621 121.413 278.038 120.368 279.082C119.323 280.127 117.906 280.714 116.429 280.714ZM101.571 280.714C98.4944 280.714 96 278.22 96 275.143C96 272.066 98.4944 269.571 101.571 269.571C104.648 269.571 107.143 272.066 107.143 275.143C107.143 276.621 106.556 278.038 105.511 279.082C104.466 280.127 103.049 280.714 101.571 280.714ZM116.429 265.857C113.352 265.857 110.857 263.363 110.857 260.286C110.857 257.209 113.352 254.714 116.429 254.714C119.506 254.714 122 257.209 122 260.286C122 263.363 119.506 265.857 116.429 265.857ZM101.571 265.857C98.4944 265.857 96 263.363 96 260.286C96 257.209 98.4944 254.714 101.571 254.714C104.648 254.714 107.143 257.209 107.143 260.286C107.143 261.763 106.556 263.18 105.511 264.225C104.466 265.27 103.049 265.857 101.571 265.857Z" fill="#303030"/>
<path d="M412.439 280.464H407.562C406.932 280.464 406.387 280.039 406.253 279.442L405.707 276.993C404.98 276.684 404.29 276.297 403.651 275.84L401.189 276.601C400.589 276.786 399.936 276.541 399.622 276.012L397.178 271.915C396.866 271.386 396.973 270.718 397.436 270.305L399.346 268.615C399.259 267.849 399.259 267.077 399.346 266.311L397.436 264.625C396.973 264.212 396.865 263.543 397.178 263.013L399.616 258.914C399.931 258.385 400.584 258.14 401.184 258.325L403.645 259.086C403.972 258.851 404.313 258.634 404.665 258.436C405.003 258.251 405.351 258.083 405.707 257.934L406.254 255.487C406.388 254.891 406.932 254.465 407.562 254.464H412.439C413.068 254.465 413.612 254.891 413.747 255.487L414.299 257.935C414.675 258.096 415.041 258.277 415.396 258.479C415.727 258.664 416.048 258.868 416.355 259.088L418.818 258.328C419.418 258.143 420.07 258.388 420.384 258.917L422.823 263.016C423.134 263.545 423.027 264.214 422.564 264.626L420.655 266.316C420.742 267.082 420.742 267.854 420.655 268.62L422.564 270.31C423.027 270.723 423.134 271.391 422.823 271.921L420.384 276.02C420.07 276.548 419.418 276.794 418.818 276.608L416.355 275.848C416.044 276.071 415.72 276.277 415.385 276.465C415.034 276.663 414.672 276.841 414.3 277L413.747 279.442C413.612 280.039 413.068 280.464 412.439 280.464ZM409.995 262.264C407.035 262.264 404.635 264.592 404.635 267.464C404.635 270.336 407.035 272.664 409.995 272.664C412.955 272.664 415.354 270.336 415.354 267.464C415.354 264.592 412.955 262.264 409.995 262.264Z" fill="#303030"/>
<path d="M350 280.964C348.034 280.97 346.094 280.525 344.327 279.664C343.68 279.35 343.061 278.982 342.474 278.566L342.296 278.436C340.684 277.246 339.366 275.702 338.443 273.923C337.489 272.082 336.994 270.038 337 267.964C337 260.785 342.82 254.964 350 254.964C357.18 254.964 363 260.785 363 267.964C363.006 270.037 362.512 272.081 361.558 273.921C360.637 275.698 359.32 277.242 357.71 278.432C357.103 278.876 356.458 279.268 355.784 279.602L355.68 279.654C353.912 280.519 351.969 280.968 350 280.964ZM350 274.464C348.052 274.46 346.266 275.548 345.376 277.281C348.29 278.725 351.71 278.725 354.624 277.281V277.275C353.733 275.544 351.947 274.458 350 274.464ZM350 271.864C352.816 271.868 355.412 273.385 356.798 275.837L356.817 275.82L356.835 275.805L356.813 275.824L356.8 275.834C360.088 272.994 361.263 268.409 359.748 264.337C358.233 260.266 354.346 257.565 350.001 257.565C345.657 257.565 341.77 260.266 340.254 264.337C338.739 268.409 339.915 272.994 343.202 275.834C344.588 273.384 347.185 271.868 350 271.864ZM350 270.564C347.128 270.564 344.8 268.236 344.8 265.364C344.8 262.492 347.128 260.164 350 260.164C352.872 260.164 355.2 262.492 355.2 265.364C355.2 266.743 354.652 268.066 353.677 269.041C352.702 270.016 351.379 270.564 350 270.564ZM350 262.764C348.564 262.764 347.4 263.928 347.4 265.364C347.4 266.8 348.564 267.964 350 267.964C351.436 267.964 352.6 266.8 352.6 265.364C352.6 263.928 351.436 262.764 350 262.764Z" fill="#303030"/>
<path d="M90.134 330.559C89.2933 330.559 88.5697 330.407 87.963 330.104C87.365 329.792 86.8537 329.345 86.429 328.765L87.612 327.426C88.0367 328.015 88.457 328.418 88.873 328.635C89.289 328.843 89.7483 328.947 90.251 328.947C90.6583 328.947 91.0007 328.86 91.278 328.687C91.564 328.513 91.707 328.279 91.707 327.985C91.707 327.629 91.525 327.352 91.161 327.153C90.8057 326.945 90.3463 326.784 89.783 326.672C88.8037 326.464 88.0757 326.13 87.599 325.671C87.1223 325.211 86.884 324.6 86.884 323.838C86.884 323.309 87.0357 322.845 87.339 322.447C87.6423 322.039 88.041 321.723 88.535 321.498C89.0377 321.272 89.5923 321.16 90.199 321.16C91.005 321.16 91.6723 321.298 92.201 321.576C92.7383 321.844 93.163 322.23 93.475 322.733L92.266 323.916C91.7287 323.153 91.044 322.772 90.212 322.772C89.7787 322.772 89.4277 322.863 89.159 323.045C88.899 323.218 88.769 323.456 88.769 323.76C88.769 324.08 88.9207 324.332 89.224 324.514C89.536 324.696 89.952 324.839 90.472 324.943C91.4253 325.142 92.1793 325.463 92.734 325.905C93.2973 326.338 93.579 326.923 93.579 327.66C93.579 328.266 93.4317 328.786 93.137 329.22C92.851 329.653 92.448 329.987 91.928 330.221C91.4167 330.446 90.8187 330.559 90.134 330.559ZM99.0895 330.507C98.3615 330.507 97.7115 330.355 97.1395 330.052C96.5675 329.74 96.1168 329.315 95.7875 328.778C95.4581 328.24 95.2935 327.625 95.2935 326.932V321.316H97.1785V326.815C97.1785 327.196 97.2651 327.538 97.4385 327.842C97.6118 328.136 97.8415 328.37 98.1275 328.544C98.4221 328.717 98.7428 328.804 99.0895 328.804C99.4621 328.804 99.7958 328.717 100.09 328.544C100.394 328.37 100.632 328.136 100.805 327.842C100.987 327.538 101.078 327.196 101.078 326.815V321.316H102.885V326.932C102.885 327.625 102.721 328.24 102.391 328.778C102.071 329.315 101.624 329.74 101.052 330.052C100.48 330.355 99.8261 330.507 99.0895 330.507ZM105.198 330.429V321.329H109.124C110.034 321.329 110.727 321.528 111.204 321.927C111.689 322.317 111.932 322.871 111.932 323.591C111.932 324.492 111.555 325.112 110.801 325.45C111.286 325.632 111.676 325.918 111.971 326.308C112.266 326.698 112.413 327.166 112.413 327.712C112.413 328.604 112.123 329.28 111.542 329.74C110.97 330.199 110.207 330.429 109.254 330.429H105.198ZM107.005 325.034H108.916C109.271 325.034 109.557 324.938 109.774 324.748C109.991 324.557 110.099 324.306 110.099 323.994C110.099 323.673 109.986 323.422 109.761 323.24C109.544 323.058 109.224 322.967 108.799 322.967H107.005V325.034ZM107.005 328.791H109.176C109.609 328.791 109.947 328.691 110.19 328.492C110.433 328.292 110.554 328.006 110.554 327.634C110.554 327.287 110.424 327.023 110.164 326.841C109.904 326.65 109.553 326.555 109.111 326.555H107.005V328.791ZM114.199 330.429V321.329H115.928L118.684 325.827L121.492 321.329H123.143V330.429H121.31V327.218C121.31 326.689 121.319 326.199 121.336 325.749C121.353 325.289 121.379 324.847 121.414 324.423L119.074 328.05H118.216L115.928 324.449C115.971 324.847 115.997 325.272 116.006 325.723C116.023 326.165 116.032 326.663 116.032 327.218V330.429H114.199ZM125.536 330.429V321.329H131.62V322.993H127.369V324.982H130.983V326.594H127.369V328.765H131.698V330.429H125.536ZM133.75 330.429V321.329H135.427L140.12 327.66C140.05 327.114 139.998 326.546 139.964 325.957C139.938 325.359 139.929 324.67 139.938 323.89V321.329H141.771V330.429H140.068L135.401 324.202C135.453 324.774 135.492 325.229 135.518 325.567C135.544 325.896 135.561 326.173 135.57 326.399C135.578 326.615 135.583 326.841 135.583 327.075V330.429H133.75ZM147.865 330.507C147.137 330.507 146.487 330.355 145.915 330.052C145.343 329.74 144.892 329.315 144.563 328.778C144.234 328.24 144.069 327.625 144.069 326.932V321.316H145.954V326.815C145.954 327.196 146.041 327.538 146.214 327.842C146.387 328.136 146.617 328.37 146.903 328.544C147.198 328.717 147.518 328.804 147.865 328.804C148.238 328.804 148.571 328.717 148.866 328.544C149.169 328.37 149.408 328.136 149.581 327.842C149.763 327.538 149.854 327.196 149.854 326.815V321.316H151.661V326.932C151.661 327.625 151.496 328.24 151.167 328.778C150.846 329.315 150.4 329.74 149.828 330.052C149.256 330.355 148.602 330.507 147.865 330.507Z" fill="#939393"/>
<g filter="url(#filter3_d_322_3104)">
<path d="M86 365.143C86 362.381 88.2386 360.143 91 360.143H111C113.761 360.143 116 362.381 116 365.143V385.143C116 387.904 113.761 390.143 111 390.143H91C88.2386 390.143 86 387.904 86 385.143V365.143Z" fill="#FFB833"/>
<path d="M95.7875 373.893L100.262 369.405L98.5 367.643L91 375.143L98.5 382.643L100.262 380.88L95.7875 376.393H111V373.893H95.7875Z" fill="white"/>
</g>
<path d="M174.748 383.143V369.843H177.275L181.303 376.417L185.407 369.843H187.82V383.143H185.141V378.45C185.141 377.677 185.154 376.962 185.179 376.303C185.204 375.632 185.242 374.986 185.293 374.365L181.873 379.666H180.619L177.275 374.403C177.338 374.986 177.376 375.606 177.389 376.265C177.414 376.911 177.427 377.639 177.427 378.45V383.143H174.748ZM195.573 383.333C194.547 383.333 193.635 383.111 192.837 382.668C192.039 382.212 191.412 381.591 190.956 380.806C190.5 380.021 190.272 379.121 190.272 378.108C190.272 377.107 190.5 376.214 190.956 375.429C191.412 374.644 192.039 374.029 192.837 373.586C193.635 373.13 194.547 372.902 195.573 372.902C196.574 372.902 197.473 373.13 198.271 373.586C199.069 374.029 199.696 374.644 200.152 375.429C200.608 376.214 200.836 377.107 200.836 378.108C200.836 379.121 200.608 380.021 200.152 380.806C199.696 381.591 199.069 382.212 198.271 382.668C197.473 383.111 196.574 383.333 195.573 383.333ZM195.573 381.072C196.08 381.072 196.536 380.945 196.941 380.692C197.347 380.426 197.657 380.071 197.872 379.628C198.1 379.185 198.214 378.678 198.214 378.108C198.214 377.538 198.1 377.031 197.872 376.588C197.657 376.145 197.347 375.796 196.941 375.543C196.536 375.29 196.08 375.163 195.573 375.163C195.054 375.163 194.592 375.29 194.186 375.543C193.781 375.796 193.464 376.145 193.236 376.588C193.008 377.031 192.894 377.538 192.894 378.108C192.894 378.678 193.008 379.185 193.236 379.628C193.464 380.071 193.781 380.426 194.186 380.692C194.592 380.945 195.054 381.072 195.573 381.072ZM206.857 383.333C205.97 383.333 205.179 383.111 204.482 382.668C203.785 382.212 203.234 381.591 202.829 380.806C202.436 380.021 202.24 379.128 202.24 378.127C202.24 377.114 202.436 376.214 202.829 375.429C203.234 374.644 203.785 374.029 204.482 373.586C205.179 373.13 205.97 372.902 206.857 372.902C207.465 372.902 208.041 373.022 208.586 373.263C209.143 373.504 209.593 373.814 209.935 374.194V369.083H212.538V383.143H210.068L210.03 381.946C209.701 382.339 209.251 382.668 208.681 382.934C208.111 383.2 207.503 383.333 206.857 383.333ZM207.427 381.167C208.2 381.167 208.827 380.888 209.308 380.331C209.789 379.761 210.03 379.026 210.03 378.127C210.03 377.215 209.789 376.48 209.308 375.923C208.827 375.353 208.2 375.068 207.427 375.068C206.654 375.068 206.027 375.353 205.546 375.923C205.065 376.48 204.824 377.215 204.824 378.127C204.824 379.026 205.065 379.761 205.546 380.331C206.027 380.888 206.654 381.167 207.427 381.167ZM216.746 371.021C216.24 371.021 215.841 370.894 215.549 370.641C215.271 370.388 215.131 370.039 215.131 369.596C215.131 369.165 215.271 368.817 215.549 368.551C215.841 368.285 216.24 368.152 216.746 368.152C217.253 368.152 217.646 368.279 217.924 368.532C218.203 368.785 218.342 369.14 218.342 369.596C218.342 370.014 218.197 370.356 217.905 370.622C217.627 370.888 217.24 371.021 216.746 371.021ZM215.454 383.143V373.111H218.057V383.143H215.454ZM221.794 383.143V375.562H220.255V373.339H221.794V372.351C221.794 371.73 221.927 371.173 222.193 370.679C222.459 370.172 222.833 369.78 223.314 369.501C223.808 369.21 224.378 369.064 225.024 369.064C225.468 369.064 225.879 369.14 226.259 369.292C226.639 369.431 226.969 369.628 227.247 369.881L226.468 371.8C226.304 371.686 226.133 371.597 225.955 371.534C225.791 371.458 225.632 371.42 225.48 371.42C224.758 371.42 224.397 371.781 224.397 372.503V373.339H226.582V375.562H224.397V383.143H221.794ZM230.002 371.021C229.496 371.021 229.097 370.894 228.805 370.641C228.527 370.388 228.387 370.039 228.387 369.596C228.387 369.165 228.527 368.817 228.805 368.551C229.097 368.285 229.496 368.152 230.002 368.152C230.509 368.152 230.902 368.279 231.18 368.532C231.459 368.785 231.598 369.14 231.598 369.596C231.598 370.014 231.453 370.356 231.161 370.622C230.883 370.888 230.496 371.021 230.002 371.021ZM228.71 383.143V373.111H231.313V383.143H228.71ZM238.576 383.333C237.626 383.333 236.771 383.105 236.011 382.649C235.264 382.193 234.668 381.572 234.225 380.787C233.794 380.002 233.579 379.109 233.579 378.108C233.579 377.12 233.794 376.233 234.225 375.448C234.668 374.663 235.264 374.042 236.011 373.586C236.771 373.13 237.626 372.902 238.576 372.902C239.475 372.902 240.292 373.067 241.027 373.396C241.774 373.725 242.357 374.188 242.775 374.783L241.35 376.493C241.084 376.126 240.717 375.815 240.248 375.562C239.779 375.296 239.304 375.163 238.823 375.163C238.291 375.163 237.816 375.296 237.398 375.562C236.993 375.815 236.67 376.164 236.429 376.607C236.201 377.05 236.087 377.551 236.087 378.108C236.087 378.665 236.207 379.166 236.448 379.609C236.689 380.052 237.018 380.407 237.436 380.673C237.854 380.926 238.323 381.053 238.842 381.053C239.336 381.053 239.792 380.945 240.21 380.73C240.628 380.502 241.008 380.185 241.35 379.78L242.775 381.49C242.344 382.047 241.749 382.497 240.989 382.839C240.229 383.168 239.425 383.333 238.576 383.333ZM248.285 383.333C247.449 383.333 246.696 383.105 246.024 382.649C245.353 382.193 244.815 381.572 244.409 380.787C244.017 380.002 243.82 379.109 243.82 378.108C243.82 377.082 244.017 376.183 244.409 375.41C244.815 374.625 245.359 374.01 246.043 373.567C246.74 373.124 247.525 372.902 248.399 372.902C249.109 372.902 249.729 373.048 250.261 373.339C250.793 373.618 251.218 373.985 251.534 374.441V373.111H254.118V383.143H251.515V381.794C251.161 382.237 250.698 382.605 250.128 382.896C249.571 383.187 248.957 383.333 248.285 383.333ZM248.988 381.072C249.761 381.072 250.388 380.8 250.869 380.255C251.351 379.71 251.591 378.995 251.591 378.108C251.591 377.221 251.351 376.506 250.869 375.961C250.388 375.416 249.761 375.144 248.988 375.144C248.228 375.144 247.608 375.416 247.126 375.961C246.658 376.506 246.423 377.221 246.423 378.108C246.423 378.995 246.658 379.71 247.126 380.255C247.608 380.8 248.228 381.072 248.988 381.072ZM262.577 387.323V373.111H265.085L265.123 374.327C265.452 373.922 265.902 373.586 266.472 373.32C267.042 373.054 267.643 372.921 268.277 372.921C269.151 372.921 269.93 373.143 270.614 373.586C271.298 374.029 271.836 374.644 272.229 375.429C272.621 376.214 272.818 377.107 272.818 378.108C272.818 379.109 272.621 380.002 272.229 380.787C271.836 381.572 271.298 382.193 270.614 382.649C269.93 383.092 269.151 383.314 268.277 383.314C267.681 383.314 267.105 383.194 266.548 382.953C265.99 382.7 265.541 382.383 265.199 382.003V387.323H262.577ZM267.707 381.072C268.479 381.072 269.106 380.8 269.588 380.255C270.069 379.698 270.31 378.982 270.31 378.108C270.31 377.247 270.069 376.544 269.588 375.999C269.106 375.442 268.479 375.163 267.707 375.163C266.934 375.163 266.307 375.435 265.826 375.98C265.344 376.525 265.104 377.234 265.104 378.108C265.104 378.982 265.344 379.698 265.826 380.255C266.307 380.8 266.934 381.072 267.707 381.072ZM274.878 383.143V373.111H277.386L277.424 374.764C277.754 374.219 278.184 373.776 278.716 373.434C279.261 373.079 279.831 372.902 280.426 372.902C280.654 372.902 280.863 372.921 281.053 372.959C281.256 372.984 281.427 373.022 281.566 373.073L280.863 375.923C280.724 375.847 280.547 375.784 280.331 375.733C280.116 375.682 279.901 375.657 279.685 375.657C279.065 375.657 278.539 375.872 278.108 376.303C277.69 376.721 277.481 377.253 277.481 377.899V383.143H274.878ZM287.326 383.333C286.3 383.333 285.388 383.111 284.59 382.668C283.792 382.212 283.165 381.591 282.709 380.806C282.253 380.021 282.025 379.121 282.025 378.108C282.025 377.107 282.253 376.214 282.709 375.429C283.165 374.644 283.792 374.029 284.59 373.586C285.388 373.13 286.3 372.902 287.326 372.902C288.327 372.902 289.226 373.13 290.024 373.586C290.822 374.029 291.449 374.644 291.905 375.429C292.361 376.214 292.589 377.107 292.589 378.108C292.589 379.121 292.361 380.021 291.905 380.806C291.449 381.591 290.822 382.212 290.024 382.668C289.226 383.111 288.327 383.333 287.326 383.333ZM287.326 381.072C287.833 381.072 288.289 380.945 288.694 380.692C289.1 380.426 289.41 380.071 289.625 379.628C289.853 379.185 289.967 378.678 289.967 378.108C289.967 377.538 289.853 377.031 289.625 376.588C289.41 376.145 289.1 375.796 288.694 375.543C288.289 375.29 287.833 375.163 287.326 375.163C286.807 375.163 286.345 375.29 285.939 375.543C285.534 375.796 285.217 376.145 284.989 376.588C284.761 377.031 284.647 377.538 284.647 378.108C284.647 378.678 284.761 379.185 284.989 379.628C285.217 380.071 285.534 380.426 285.939 380.692C286.345 380.945 286.807 381.072 287.326 381.072ZM298.61 383.333C297.723 383.333 296.932 383.111 296.235 382.668C295.538 382.212 294.987 381.591 294.582 380.806C294.189 380.021 293.993 379.128 293.993 378.127C293.993 377.114 294.189 376.214 294.582 375.429C294.987 374.644 295.538 374.029 296.235 373.586C296.932 373.13 297.723 372.902 298.61 372.902C299.218 372.902 299.794 373.022 300.339 373.263C300.896 373.504 301.346 373.814 301.688 374.194V369.083H304.291V383.143H301.821L301.783 381.946C301.454 382.339 301.004 382.668 300.434 382.934C299.864 383.2 299.256 383.333 298.61 383.333ZM299.18 381.167C299.953 381.167 300.58 380.888 301.061 380.331C301.542 379.761 301.783 379.026 301.783 378.127C301.783 377.215 301.542 376.48 301.061 375.923C300.58 375.353 299.953 375.068 299.18 375.068C298.407 375.068 297.78 375.353 297.299 375.923C296.818 376.48 296.577 377.215 296.577 378.127C296.577 379.026 296.818 379.761 297.299 380.331C297.78 380.888 298.407 381.167 299.18 381.167ZM311.577 383.333C310.551 383.333 309.639 383.111 308.841 382.668C308.043 382.212 307.416 381.591 306.96 380.806C306.504 380.021 306.276 379.121 306.276 378.108C306.276 377.107 306.504 376.214 306.96 375.429C307.416 374.644 308.043 374.029 308.841 373.586C309.639 373.13 310.551 372.902 311.577 372.902C312.578 372.902 313.477 373.13 314.275 373.586C315.073 374.029 315.7 374.644 316.156 375.429C316.612 376.214 316.84 377.107 316.84 378.108C316.84 379.121 316.612 380.021 316.156 380.806C315.7 381.591 315.073 382.212 314.275 382.668C313.477 383.111 312.578 383.333 311.577 383.333ZM311.577 381.072C312.084 381.072 312.54 380.945 312.945 380.692C313.351 380.426 313.661 380.071 313.876 379.628C314.104 379.185 314.218 378.678 314.218 378.108C314.218 377.538 314.104 377.031 313.876 376.588C313.661 376.145 313.351 375.796 312.945 375.543C312.54 375.29 312.084 375.163 311.577 375.163C311.058 375.163 310.596 375.29 310.19 375.543C309.785 375.796 309.468 376.145 309.24 376.588C309.012 377.031 308.898 377.538 308.898 378.108C308.898 378.678 309.012 379.185 309.24 379.628C309.468 380.071 309.785 380.426 310.19 380.692C310.596 380.945 311.058 381.072 311.577 381.072ZM319.897 383.143V375.448H317.997V373.111H319.897V370.546H322.481V373.111H324.59V375.448H322.481V383.143H319.897ZM327.337 383.143V375.448H325.437V373.111H327.337V370.546H329.921V373.111H332.03V375.448H329.921V383.143H327.337ZM338.333 383.333C337.307 383.333 336.395 383.111 335.597 382.668C334.799 382.212 334.172 381.591 333.716 380.806C333.26 380.021 333.032 379.121 333.032 378.108C333.032 377.107 333.26 376.214 333.716 375.429C334.172 374.644 334.799 374.029 335.597 373.586C336.395 373.13 337.307 372.902 338.333 372.902C339.334 372.902 340.233 373.13 341.031 373.586C341.829 374.029 342.456 374.644 342.912 375.429C343.368 376.214 343.596 377.107 343.596 378.108C343.596 379.121 343.368 380.021 342.912 380.806C342.456 381.591 341.829 382.212 341.031 382.668C340.233 383.111 339.334 383.333 338.333 383.333ZM338.333 381.072C338.84 381.072 339.296 380.945 339.701 380.692C340.106 380.426 340.417 380.071 340.632 379.628C340.86 379.185 340.974 378.678 340.974 378.108C340.974 377.538 340.86 377.031 340.632 376.588C340.417 376.145 340.106 375.796 339.701 375.543C339.296 375.29 338.84 375.163 338.333 375.163C337.814 375.163 337.351 375.29 336.946 375.543C336.541 375.796 336.224 376.145 335.996 376.588C335.768 377.031 335.654 377.538 335.654 378.108C335.654 378.678 335.768 379.185 335.996 379.628C336.224 380.071 336.541 380.426 336.946 380.692C337.351 380.945 337.814 381.072 338.333 381.072Z" fill="#FFB833"/>
<g filter="url(#filter4_d_322_3104)">
<path d="M403 366.143C403 363.381 405.239 361.143 408 361.143H428C430.761 361.143 433 363.381 433 366.143V386.143C433 388.904 430.761 391.143 428 391.143H408C405.239 391.143 403 388.904 403 386.143V366.143Z" fill="#FFB833"/>
</g>
<path d="M423.078 386.299H412.922C411.8 386.299 410.891 385.39 410.891 384.268V371.065H408.859V369.033H412.922V368.018C412.922 366.896 413.831 365.987 414.953 365.987H421.047C422.169 365.987 423.078 366.896 423.078 368.018V369.033H427.141V371.065H425.109V384.268C425.109 385.39 424.2 386.299 423.078 386.299ZM412.922 371.065V384.268H423.078V371.065H412.922ZM414.953 368.018V369.033H421.047V368.018H414.953ZM421.047 382.237H419.016V373.096H421.047V382.237ZM416.984 382.237H414.953V373.096H416.984V382.237Z" fill="white"/>
<path d="M87.196 430.857V421.757H93.306V423.46H89.068V425.566H92.76V427.204H89.068V430.857H87.196ZM99.033 430.987C98.3657 430.987 97.7503 430.87 97.187 430.636C96.6237 430.402 96.134 430.077 95.718 429.661C95.3107 429.236 94.99 428.738 94.756 428.166C94.5307 427.594 94.418 426.966 94.418 426.281C94.418 425.605 94.5307 424.981 94.756 424.409C94.99 423.837 95.3107 423.343 95.718 422.927C96.134 422.502 96.6237 422.173 97.187 421.939C97.7503 421.705 98.3657 421.588 99.033 421.588C99.6917 421.588 100.303 421.705 100.866 421.939C101.429 422.173 101.915 422.502 102.322 422.927C102.738 423.352 103.059 423.85 103.284 424.422C103.518 424.994 103.635 425.614 103.635 426.281C103.635 426.957 103.518 427.581 103.284 428.153C103.059 428.725 102.738 429.223 102.322 429.648C101.915 430.073 101.429 430.402 100.866 430.636C100.303 430.87 99.6917 430.987 99.033 430.987ZM99.033 429.206C99.553 429.206 100.017 429.08 100.424 428.829C100.831 428.578 101.148 428.231 101.373 427.789C101.607 427.347 101.724 426.844 101.724 426.281C101.724 425.718 101.607 425.219 101.373 424.786C101.148 424.344 100.831 423.997 100.424 423.746C100.017 423.486 99.553 423.356 99.033 423.356C98.5043 423.356 98.0363 423.482 97.629 423.733C97.2217 423.984 96.901 424.331 96.667 424.773C96.4417 425.215 96.329 425.718 96.329 426.281C96.329 426.853 96.4417 427.36 96.667 427.802C96.901 428.235 97.2217 428.578 97.629 428.829C98.0363 429.08 98.5043 429.206 99.033 429.206ZM109.418 430.987C108.75 430.987 108.135 430.87 107.572 430.636C107.008 430.402 106.519 430.077 106.103 429.661C105.695 429.236 105.375 428.738 105.141 428.166C104.915 427.594 104.803 426.966 104.803 426.281C104.803 425.605 104.915 424.981 105.141 424.409C105.375 423.837 105.695 423.343 106.103 422.927C106.519 422.502 107.008 422.173 107.572 421.939C108.135 421.705 108.75 421.588 109.418 421.588C110.076 421.588 110.687 421.705 111.251 421.939C111.814 422.173 112.299 422.502 112.707 422.927C113.123 423.352 113.443 423.85 113.669 424.422C113.903 424.994 114.02 425.614 114.02 426.281C114.02 426.957 113.903 427.581 113.669 428.153C113.443 428.725 113.123 429.223 112.707 429.648C112.299 430.073 111.814 430.402 111.251 430.636C110.687 430.87 110.076 430.987 109.418 430.987ZM109.418 429.206C109.938 429.206 110.401 429.08 110.809 428.829C111.216 428.578 111.532 428.231 111.758 427.789C111.992 427.347 112.109 426.844 112.109 426.281C112.109 425.718 111.992 425.219 111.758 424.786C111.532 424.344 111.216 423.997 110.809 423.746C110.401 423.486 109.938 423.356 109.418 423.356C108.889 423.356 108.421 423.482 108.014 423.733C107.606 423.984 107.286 424.331 107.052 424.773C106.826 425.215 106.714 425.718 106.714 426.281C106.714 426.853 106.826 427.36 107.052 427.802C107.286 428.235 107.606 428.578 108.014 428.829C108.421 429.08 108.889 429.206 109.418 429.206ZM117.277 430.857V423.46H114.638V421.757H121.866V423.46H119.149V430.857H117.277ZM123.492 430.857V421.757H129.576V423.421H125.325V425.41H128.939V427.022H125.325V429.193H129.654V430.857H123.492ZM131.706 430.857V421.757H135.71C136.264 421.757 136.767 421.883 137.218 422.134C137.677 422.385 138.041 422.732 138.31 423.174C138.578 423.607 138.713 424.101 138.713 424.656C138.713 425.245 138.557 425.774 138.245 426.242C137.933 426.71 137.521 427.061 137.01 427.295L139.077 430.87L136.906 430.857L135.047 427.568H133.513V430.857H131.706ZM133.513 426.021H135.645C136.009 426.021 136.299 425.9 136.516 425.657C136.741 425.406 136.854 425.094 136.854 424.721C136.854 424.322 136.719 424.002 136.451 423.759C136.182 423.516 135.827 423.395 135.385 423.395H133.513V426.021Z" fill="#939393"/>
<g filter="url(#filter5_d_322_3104)">
<rect x="86" y="460.571" width="346" height="98" rx="10" fill="white"/>
<path d="M164 496.571H168.2V524.571H164V496.571Z" fill="#303030"/>
<path d="M169.6 496.571H171V524.571H169.6V496.571Z" fill="#303030"/>
<path d="M176.6 496.571H173.8V524.571H176.6V496.571Z" fill="#303030"/>
<path d="M178 496.571H180.8V524.571H178V496.571Z" fill="#303030"/>
<path d="M182.2 496.571H183.6V524.571H182.2V496.571Z" fill="#303030"/>
<path d="M189.2 496.571H185V524.571H189.2V496.571Z" fill="#303030"/>
<path d="M190.6 496.571H192V524.571H190.6V496.571Z" fill="#303030"/>
<path d="M342.333 510.405V518.405H339.667V510.405H331.667V507.738H339.667V499.738H342.333V507.738H350.333V510.405H342.333Z" fill="#303030"/>
</g>
<path d="M89.068 598.286V590.889H86.429V589.186H93.657V590.889H90.94V598.286H89.068ZM93.5695 598.286L97.1315 589.186H98.8215L102.37 598.286H100.446L99.7055 596.323H96.1695L95.4285 598.286H93.5695ZM97.3005 593.333L96.7545 594.789H99.1335L98.5745 593.307C98.5225 593.177 98.4618 593.008 98.3925 592.8C98.3231 592.583 98.2451 592.353 98.1585 592.111C98.0805 591.868 98.0111 591.638 97.9505 591.422C97.8465 591.742 97.7381 592.072 97.6255 592.41C97.5128 592.748 97.4045 593.055 97.3005 593.333ZM103.7 598.286V589.186H107.626C108.536 589.186 109.229 589.385 109.706 589.784C110.191 590.174 110.434 590.728 110.434 591.448C110.434 592.349 110.057 592.969 109.303 593.307C109.788 593.489 110.178 593.775 110.473 594.165C110.768 594.555 110.915 595.023 110.915 595.569C110.915 596.461 110.625 597.137 110.044 597.597C109.472 598.056 108.709 598.286 107.756 598.286H103.7ZM105.507 592.891H107.418C107.773 592.891 108.059 592.795 108.276 592.605C108.493 592.414 108.601 592.163 108.601 591.851C108.601 591.53 108.488 591.279 108.263 591.097C108.046 590.915 107.726 590.824 107.301 590.824H105.507V592.891ZM105.507 596.648H107.678C108.111 596.648 108.449 596.548 108.692 596.349C108.935 596.149 109.056 595.863 109.056 595.491C109.056 595.144 108.926 594.88 108.666 594.698C108.406 594.507 108.055 594.412 107.613 594.412H105.507V596.648ZM115.639 598.416C114.798 598.416 114.075 598.264 113.468 597.961C112.87 597.649 112.359 597.202 111.934 596.622L113.117 595.283C113.542 595.872 113.962 596.275 114.378 596.492C114.794 596.7 115.253 596.804 115.756 596.804C116.163 596.804 116.506 596.717 116.783 596.544C117.069 596.37 117.212 596.136 117.212 595.842C117.212 595.486 117.03 595.209 116.666 595.01C116.311 594.802 115.851 594.641 115.288 594.529C114.309 594.321 113.581 593.987 113.104 593.528C112.627 593.068 112.389 592.457 112.389 591.695C112.389 591.166 112.541 590.702 112.844 590.304C113.147 589.896 113.546 589.58 114.04 589.355C114.543 589.129 115.097 589.017 115.704 589.017C116.51 589.017 117.177 589.155 117.706 589.433C118.243 589.701 118.668 590.087 118.98 590.59L117.771 591.773C117.234 591.01 116.549 590.629 115.717 590.629C115.284 590.629 114.933 590.72 114.664 590.902C114.404 591.075 114.274 591.313 114.274 591.617C114.274 591.937 114.426 592.189 114.729 592.371C115.041 592.553 115.457 592.696 115.977 592.8C116.93 592.999 117.684 593.32 118.239 593.762C118.802 594.195 119.084 594.78 119.084 595.517C119.084 596.123 118.937 596.643 118.642 597.077C118.356 597.51 117.953 597.844 117.433 598.078C116.922 598.303 116.324 598.416 115.639 598.416Z" fill="#939393"/>
<path d="M94 629H258V687H94C90.134 687 87 683.866 87 680V636C87 632.134 90.134 629 94 629Z" fill="white"/>
<path d="M133.667 648.667H151V651.333H133.667V648.667ZM127 648H131V652H127V648ZM127 656H131V660H127V656ZM127 664H131V668H127V664ZM133.667 656.667H151V659.333H133.667V656.667ZM133.667 664.667H151V667.333H133.667V664.667Z" fill="#FFB833"/>
<path d="M168.564 664.5V652.6H176.52V654.776H170.961V657.377H175.687V659.485H170.961V662.324H176.622V664.5H168.564ZM178.982 664.5V651.92H181.294V664.5H178.982ZM187.83 664.67C186.867 664.67 186.022 664.472 185.297 664.075C184.572 663.678 184.005 663.134 183.597 662.443C183.2 661.752 183.002 660.958 183.002 660.063C183.002 659.134 183.195 658.318 183.58 657.615C183.977 656.901 184.515 656.34 185.195 655.932C185.886 655.524 186.68 655.32 187.575 655.32C188.38 655.32 189.099 655.518 189.734 655.915C190.38 656.3 190.879 656.827 191.23 657.496C191.593 658.165 191.763 658.93 191.74 659.791L191.723 660.522H185.263C185.388 661.168 185.694 661.678 186.181 662.052C186.68 662.426 187.309 662.613 188.068 662.613C188.476 662.613 188.844 662.551 189.173 662.426C189.513 662.301 189.876 662.08 190.261 661.763L191.383 663.327C190.896 663.758 190.335 664.092 189.7 664.33C189.077 664.557 188.453 664.67 187.83 664.67ZM187.592 657.326C186.311 657.326 185.541 657.904 185.28 659.06H189.53V658.992C189.496 658.505 189.292 658.108 188.918 657.802C188.555 657.485 188.113 657.326 187.592 657.326ZM193.541 664.5V655.524H195.785L195.819 656.731C196.125 656.323 196.533 655.989 197.043 655.728C197.553 655.467 198.086 655.337 198.641 655.337C200.704 655.337 201.735 656.561 201.735 659.009V664.5H199.423V659.179C199.423 657.898 198.885 657.281 197.808 657.326C197.253 657.326 196.788 657.496 196.414 657.836C196.051 658.176 195.87 658.595 195.87 659.094V664.5H193.541ZM207.943 664.67C207.093 664.67 206.328 664.466 205.648 664.058C204.979 663.65 204.446 663.095 204.05 662.392C203.664 661.689 203.472 660.89 203.472 659.995C203.472 659.111 203.664 658.318 204.05 657.615C204.446 656.912 204.979 656.357 205.648 655.949C206.328 655.541 207.093 655.337 207.943 655.337C208.747 655.337 209.478 655.484 210.136 655.779C210.804 656.074 211.326 656.487 211.7 657.02L210.425 658.55C210.187 658.221 209.858 657.944 209.439 657.717C209.019 657.479 208.594 657.36 208.164 657.36C207.688 657.36 207.263 657.479 206.889 657.717C206.526 657.944 206.237 658.255 206.022 658.652C205.818 659.049 205.716 659.496 205.716 659.995C205.716 660.494 205.823 660.941 206.039 661.338C206.254 661.735 206.549 662.052 206.923 662.29C207.297 662.517 207.716 662.63 208.181 662.63C208.623 662.63 209.031 662.534 209.405 662.341C209.779 662.137 210.119 661.854 210.425 661.491L211.7 663.021C211.314 663.52 210.782 663.922 210.102 664.228C209.422 664.523 208.702 664.67 207.943 664.67ZM217.412 664.67C216.494 664.67 215.678 664.472 214.964 664.075C214.25 663.667 213.689 663.112 213.281 662.409C212.873 661.706 212.669 660.902 212.669 659.995C212.669 659.1 212.873 658.301 213.281 657.598C213.689 656.895 214.25 656.346 214.964 655.949C215.678 655.541 216.494 655.337 217.412 655.337C218.307 655.337 219.112 655.541 219.826 655.949C220.54 656.346 221.101 656.895 221.509 657.598C221.917 658.301 222.121 659.1 222.121 659.995C222.121 660.902 221.917 661.706 221.509 662.409C221.101 663.112 220.54 663.667 219.826 664.075C219.112 664.472 218.307 664.67 217.412 664.67ZM217.412 662.647C217.865 662.647 218.273 662.534 218.636 662.307C218.999 662.069 219.276 661.752 219.469 661.355C219.673 660.958 219.775 660.505 219.775 659.995C219.775 659.485 219.673 659.032 219.469 658.635C219.276 658.238 218.999 657.927 218.636 657.7C218.273 657.473 217.865 657.36 217.412 657.36C216.947 657.36 216.534 657.473 216.171 657.7C215.808 657.927 215.525 658.238 215.321 658.635C215.117 659.032 215.015 659.485 215.015 659.995C215.015 660.505 215.117 660.958 215.321 661.355C215.525 661.752 215.808 662.069 216.171 662.307C216.534 662.534 216.947 662.647 217.412 662.647Z" fill="#FFB833"/>
<path d="M94 629H258V687H94C90.134 687 87 683.866 87 680V636C87 632.134 90.134 629 94 629Z" stroke="#FFB833" stroke-width="2"/>
<path d="M432 680C432 684.418 428.418 688 424 688L259 688L259 628L424 628C428.418 628 432 631.582 432 636L432 680Z" fill="#FFB833"/>
<path d="M331.732 664.67C330.576 664.67 329.545 664.409 328.638 663.888C327.743 663.367 327.04 662.647 326.53 661.729C326.02 660.8 325.765 659.729 325.765 658.516C325.765 657.655 325.918 656.856 326.224 656.119C326.541 655.371 326.972 654.719 327.516 654.164C328.071 653.609 328.717 653.178 329.454 652.872C330.202 652.566 331.007 652.413 331.868 652.413C332.718 652.413 333.534 652.594 334.316 652.957C335.109 653.308 335.744 653.784 336.22 654.385L334.673 656.102C334.265 655.671 333.829 655.337 333.364 655.099C332.899 654.861 332.395 654.742 331.851 654.742C331.182 654.742 330.576 654.901 330.032 655.218C329.499 655.535 329.074 655.983 328.757 656.561C328.44 657.128 328.281 657.785 328.281 658.533C328.281 659.304 328.434 659.978 328.74 660.556C329.057 661.123 329.499 661.565 330.066 661.882C330.644 662.188 331.307 662.341 332.055 662.341C332.61 662.341 333.132 662.228 333.619 662.001C334.106 661.774 334.526 661.48 334.877 661.117L336.067 663.038C335.795 663.344 335.427 663.622 334.962 663.871C334.497 664.12 333.982 664.319 333.415 664.466C332.86 664.602 332.299 664.67 331.732 664.67ZM341.294 664.67C340.546 664.67 339.872 664.466 339.271 664.058C338.67 663.65 338.189 663.095 337.826 662.392C337.475 661.689 337.299 660.89 337.299 659.995C337.299 659.077 337.475 658.272 337.826 657.581C338.189 656.878 338.676 656.329 339.288 655.932C339.911 655.535 340.614 655.337 341.396 655.337C342.031 655.337 342.586 655.467 343.062 655.728C343.538 655.977 343.918 656.306 344.201 656.714V655.524H346.513V664.5H344.184V663.293C343.867 663.69 343.453 664.018 342.943 664.279C342.444 664.54 341.895 664.67 341.294 664.67ZM341.923 662.647C342.614 662.647 343.175 662.403 343.606 661.916C344.037 661.429 344.252 660.788 344.252 659.995C344.252 659.202 344.037 658.561 343.606 658.074C343.175 657.587 342.614 657.343 341.923 657.343C341.243 657.343 340.688 657.587 340.257 658.074C339.838 658.561 339.628 659.202 339.628 659.995C339.628 660.788 339.838 661.429 340.257 661.916C340.688 662.403 341.243 662.647 341.923 662.647ZM349.836 664.5V657.615H348.136V655.524H349.836V653.229H352.148V655.524H354.035V657.615H352.148V664.5H349.836ZM359.759 664.67C358.795 664.67 357.951 664.472 357.226 664.075C356.5 663.678 355.934 663.134 355.526 662.443C355.129 661.752 354.931 660.958 354.931 660.063C354.931 659.134 355.123 658.318 355.509 657.615C355.905 656.901 356.444 656.34 357.124 655.932C357.815 655.524 358.608 655.32 359.504 655.32C360.308 655.32 361.028 655.518 361.663 655.915C362.309 656.3 362.807 656.827 363.159 657.496C363.521 658.165 363.691 658.93 363.669 659.791L363.652 660.522H357.192C357.316 661.168 357.622 661.678 358.11 662.052C358.608 662.426 359.237 662.613 359.997 662.613C360.405 662.613 360.773 662.551 361.102 662.426C361.442 662.301 361.804 662.08 362.19 661.763L363.312 663.327C362.824 663.758 362.263 664.092 361.629 664.33C361.005 664.557 360.382 664.67 359.759 664.67ZM359.521 657.326C358.24 657.326 357.469 657.904 357.209 659.06H361.459V658.992C361.425 658.505 361.221 658.108 360.847 657.802C360.484 657.485 360.042 657.326 359.521 657.326ZM369.467 668.41C368.775 668.41 368.084 668.302 367.393 668.087C366.713 667.883 366.157 667.617 365.727 667.288L366.543 665.605C366.894 665.866 367.308 666.07 367.784 666.217C368.271 666.364 368.764 666.438 369.263 666.438C371.019 666.438 371.898 665.611 371.898 663.956V663.259C371.614 663.622 371.218 663.928 370.708 664.177C370.209 664.415 369.682 664.534 369.127 664.534C368.299 664.534 367.557 664.341 366.9 663.956C366.254 663.559 365.744 663.021 365.37 662.341C364.996 661.65 364.809 660.862 364.809 659.978C364.809 659.083 364.99 658.284 365.353 657.581C365.727 656.878 366.237 656.329 366.883 655.932C367.529 655.535 368.254 655.337 369.059 655.337C369.659 655.337 370.215 655.462 370.725 655.711C371.246 655.949 371.66 656.238 371.966 656.578L372 655.524H374.227V663.837C374.227 665.299 373.802 666.427 372.952 667.22C372.113 668.013 370.951 668.41 369.467 668.41ZM369.535 662.63C370.271 662.63 370.861 662.386 371.303 661.899C371.756 661.412 371.983 660.777 371.983 659.995C371.983 659.202 371.756 658.561 371.303 658.074C370.849 657.575 370.26 657.326 369.535 657.326C368.821 657.326 368.237 657.575 367.784 658.074C367.342 658.573 367.121 659.213 367.121 659.995C367.121 660.777 367.342 661.412 367.784 661.899C368.237 662.386 368.821 662.63 369.535 662.63ZM380.791 664.67C379.873 664.67 379.057 664.472 378.343 664.075C377.629 663.667 377.068 663.112 376.66 662.409C376.252 661.706 376.048 660.902 376.048 659.995C376.048 659.1 376.252 658.301 376.66 657.598C377.068 656.895 377.629 656.346 378.343 655.949C379.057 655.541 379.873 655.337 380.791 655.337C381.686 655.337 382.491 655.541 383.205 655.949C383.919 656.346 384.48 656.895 384.888 657.598C385.296 658.301 385.5 659.1 385.5 659.995C385.5 660.902 385.296 661.706 384.888 662.409C384.48 663.112 383.919 663.667 383.205 664.075C382.491 664.472 381.686 664.67 380.791 664.67ZM380.791 662.647C381.244 662.647 381.652 662.534 382.015 662.307C382.378 662.069 382.655 661.752 382.848 661.355C383.052 660.958 383.154 660.505 383.154 659.995C383.154 659.485 383.052 659.032 382.848 658.635C382.655 658.238 382.378 657.927 382.015 657.7C381.652 657.473 381.244 657.36 380.791 657.36C380.326 657.36 379.913 657.473 379.55 657.7C379.187 657.927 378.904 658.238 378.7 658.635C378.496 659.032 378.394 659.485 378.394 659.995C378.394 660.505 378.496 660.958 378.7 661.355C378.904 661.752 379.187 662.069 379.55 662.307C379.913 662.534 380.326 662.647 380.791 662.647ZM387.334 664.5V655.524H389.578L389.612 657.003C389.907 656.516 390.292 656.119 390.768 655.813C391.255 655.496 391.765 655.337 392.298 655.337C392.502 655.337 392.689 655.354 392.859 655.388C393.04 655.411 393.193 655.445 393.318 655.49L392.689 658.04C392.564 657.972 392.406 657.915 392.213 657.87C392.02 657.825 391.828 657.802 391.635 657.802C391.08 657.802 390.609 657.995 390.224 658.38C389.85 658.754 389.663 659.23 389.663 659.808V664.5H387.334ZM396.099 653.654C395.646 653.654 395.289 653.541 395.028 653.314C394.779 653.087 394.654 652.776 394.654 652.379C394.654 651.994 394.779 651.682 395.028 651.444C395.289 651.206 395.646 651.087 396.099 651.087C396.553 651.087 396.904 651.2 397.153 651.427C397.403 651.654 397.527 651.971 397.527 652.379C397.527 652.753 397.397 653.059 397.136 653.297C396.887 653.535 396.541 653.654 396.099 653.654ZM394.943 664.5V655.524H397.272V664.5H394.943ZM404.118 664.67C403.155 664.67 402.31 664.472 401.585 664.075C400.86 663.678 400.293 663.134 399.885 662.443C399.488 661.752 399.29 660.958 399.29 660.063C399.29 659.134 399.483 658.318 399.868 657.615C400.265 656.901 400.803 656.34 401.483 655.932C402.174 655.524 402.968 655.32 403.863 655.32C404.668 655.32 405.387 655.518 406.022 655.915C406.668 656.3 407.167 656.827 407.518 657.496C407.881 658.165 408.051 658.93 408.028 659.791L408.011 660.522H401.551C401.676 661.168 401.982 661.678 402.469 662.052C402.968 662.426 403.597 662.613 404.356 662.613C404.764 662.613 405.132 662.551 405.461 662.426C405.801 662.301 406.164 662.08 406.549 661.763L407.671 663.327C407.184 663.758 406.623 664.092 405.988 664.33C405.365 664.557 404.741 664.67 404.118 664.67ZM403.88 657.326C402.599 657.326 401.829 657.904 401.568 659.06H405.818V658.992C405.784 658.505 405.58 658.108 405.206 657.802C404.843 657.485 404.401 657.326 403.88 657.326Z" fill="white"/>
<path d="M296.333 671.333H288.556C287.022 671.332 285.779 670.089 285.777 668.555V655.621C284.688 654.849 284.349 653.383 284.988 652.211C286.188 650.067 287.412 647.953 288.616 645.928C289.099 645.137 289.961 644.658 290.888 644.667C291.453 644.672 292.002 644.852 292.461 645.18L292.493 645.2C293.043 645.52 298.349 648.679 302.615 651.216L306.4 653.467L306.573 653.569C309.531 655.317 310.196 655.715 310.233 655.74C311.322 656.511 311.657 657.977 311.011 659.144C309.833 661.247 308.611 663.36 307.383 665.427C306.906 666.209 306.058 666.689 305.143 666.695C304.963 666.695 304.784 666.675 304.609 666.635C304.455 666.727 303.601 667.275 302.52 667.968C300.596 669.201 297.967 670.888 297.663 671.044C297.252 671.255 296.794 671.355 296.333 671.333ZM288 659.373V668.555C288 668.862 288.249 669.111 288.556 669.111H293.653C291.716 665.84 289.815 662.563 288 659.373ZM289.811 658.04C290.344 658.956 296.099 668.883 296.147 668.949C296.222 669.048 296.34 669.105 296.464 669.105C296.529 669.105 296.594 669.089 296.652 669.059C296.832 668.957 302.244 665.48 302.297 665.445C301.879 665.199 298.849 663.393 295.641 661.483L289.784 658L289.793 658.015L289.807 658.037V658.045L289.811 658.04ZM290.443 647.2C289.365 648.933 286.955 653.237 286.923 653.316C286.844 653.505 286.914 653.723 287.088 653.831C287.265 653.936 304.893 664.439 305.061 664.465C305.083 664.467 305.104 664.467 305.125 664.465C305.27 664.466 305.405 664.39 305.48 664.267C306.565 662.444 309.065 658.057 309.072 658.044C309.149 657.854 309.079 657.637 308.905 657.528C308.736 657.427 291.141 646.971 291.028 646.921C290.976 646.9 290.921 646.888 290.865 646.888C290.725 646.889 290.594 646.96 290.517 647.077L290.508 647.093L290.497 647.109L290.481 647.136V647.143L290.461 647.175L290.441 647.2H290.443ZM292.247 654.52C291.021 654.519 290.027 653.526 290.027 652.3C290.026 651.074 291.019 650.079 292.245 650.077C293.471 650.076 294.466 651.067 294.469 652.293C294.468 653.52 293.474 654.515 292.247 654.516V654.52Z" fill="white"/>
</g>
<defs>
<filter id="filter0_d_322_3104" x="551" y="236.857" width="326" height="77" filterUnits="userSpaceOnUse" color-interpolation-filters="sRGB">
<feFlood flood-opacity="0" result="BackgroundImageFix"/>
<feColorMatrix in="SourceAlpha" type="matrix" values="0 0 0 0 0 0 0 0 0 0 0 0 0 0 0 0 0 0 127 0" result="hardAlpha"/>
<feOffset dx="2" dy="4"/>
<feGaussianBlur stdDeviation="5"/>
<feColorMatrix type="matrix" values="0 0 0 0 0 0 0 0 0 0 0 0 0 0 0 0 0 0 0.03 0"/>
<feBlend mode="normal" in2="BackgroundImageFix" result="effect1_dropShadow_322_3104"/>
<feBlend mode="normal" in="SourceGraphic" in2="effect1_dropShadow_322_3104" result="shape"/>
</filter>
<filter id="filter1_d_322_3104" x="551" y="492" width="326" height="77" filterUnits="userSpaceOnUse" color-interpolation-filters="sRGB">
<feFlood flood-opacity="0" result="BackgroundImageFix"/>
<feColorMatrix in="SourceAlpha" type="matrix" values="0 0 0 0 0 0 0 0 0 0 0 0 0 0 0 0 0 0 127 0" result="hardAlpha"/>
<feOffset dx="2" dy="4"/>
<feGaussianBlur stdDeviation="5"/>
<feColorMatrix type="matrix" values="0 0 0 0 0 0 0 0 0 0 0 0 0 0 0 0 0 0 0.03 0"/>
<feBlend mode="normal" in2="BackgroundImageFix" result="effect1_dropShadow_322_3104"/>
<feBlend mode="normal" in="SourceGraphic" in2="effect1_dropShadow_322_3104" result="shape"/>
</filter>
<filter id="filter2_d_322_3104" x="551" y="625" width="326" height="77" filterUnits="userSpaceOnUse" color-interpolation-filters="sRGB">
<feFlood flood-opacity="0" result="BackgroundImageFix"/>
<feColorMatrix in="SourceAlpha" type="matrix" values="0 0 0 0 0 0 0 0 0 0 0 0 0 0 0 0 0 0 127 0" result="hardAlpha"/>
<feOffset dx="2" dy="4"/>
<feGaussianBlur stdDeviation="5"/>
<feColorMatrix type="matrix" values="0 0 0 0 0 0 0 0 0 0 0 0 0 0 0 0 0 0 0.03 0"/>
<feBlend mode="normal" in2="BackgroundImageFix" result="effect1_dropShadow_322_3104"/>
<feBlend mode="normal" in="SourceGraphic" in2="effect1_dropShadow_322_3104" result="shape"/>
</filter>
<filter id="filter3_d_322_3104" x="79" y="357.143" width="44" height="44" filterUnits="userSpaceOnUse" color-interpolation-filters="sRGB">
<feFlood flood-opacity="0" result="BackgroundImageFix"/>
<feColorMatrix in="SourceAlpha" type="matrix" values="0 0 0 0 0 0 0 0 0 0 0 0 0 0 0 0 0 0 127 0" result="hardAlpha"/>
<feOffset dy="4"/>
<feGaussianBlur stdDeviation="3.5"/>
<feColorMatrix type="matrix" values="0 0 0 0 0 0 0 0 0 0 0 0 0 0 0 0 0 0 0.07 0"/>
<feBlend mode="normal" in2="BackgroundImageFix" result="effect1_dropShadow_322_3104"/>
<feBlend mode="normal" in="SourceGraphic" in2="effect1_dropShadow_322_3104" result="shape"/>
</filter>
<filter id="filter4_d_322_3104" x="396" y="358.143" width="44" height="44" filterUnits="userSpaceOnUse" color-interpolation-filters="sRGB">
<feFlood flood-opacity="0" result="BackgroundImageFix"/>
<feColorMatrix in="SourceAlpha" type="matrix" values="0 0 0 0 0 0 0 0 0 0 0 0 0 0 0 0 0 0 127 0" result="hardAlpha"/>
<feOffset dy="4"/>
<feGaussianBlur stdDeviation="3.5"/>
<feColorMatrix type="matrix" values="0 0 0 0 0 0 0 0 0 0 0 0 0 0 0 0 0 0 0.07 0"/>
<feBlend mode="normal" in2="BackgroundImageFix" result="effect1_dropShadow_322_3104"/>
<feBlend mode="normal" in="SourceGraphic" in2="effect1_dropShadow_322_3104" result="shape"/>
</filter>
<filter id="filter5_d_322_3104" x="57" y="423.571" width="404" height="156" filterUnits="userSpaceOnUse" color-interpolation-filters="sRGB">
<feFlood flood-opacity="0" result="BackgroundImageFix"/>
<feColorMatrix in="SourceAlpha" type="matrix" values="0 0 0 0 0 0 0 0 0 0 0 0 0 0 0 0 0 0 127 0" result="hardAlpha"/>
<feOffset dy="-8"/>
<feGaussianBlur stdDeviation="14.5"/>
<feColorMatrix type="matrix" values="0 0 0 0 0 0 0 0 0 0 0 0 0 0 0 0 0 0 0.05 0"/>
<feBlend mode="normal" in2="BackgroundImageFix" result="effect1_dropShadow_322_3104"/>
<feBlend mode="normal" in="SourceGraphic" in2="effect1_dropShadow_322_3104" result="shape"/>
</filter>
<clipPath id="clip0_322_3104">
<rect width="1032" height="768" fill="white"/>
</clipPath>
</defs>
</svg>
